<svg xmlns="http://www.w3.org/2000/svg" xmlns:xlink="http://www.w3.org/1999/xlink" width="500" zoomAndPan="magnify" viewBox="0 0 375 374.999991" height="500" preserveAspectRatio="xMidYMid meet" version="1.0"><defs><g/><clipPath id="b0866d1600"><path d="M 57.121094 57.523438 L 317.878906 57.523438 L 317.878906 318.28125 L 57.121094 318.28125 Z M 57.121094 57.523438 " clip-rule="nonzero"/></clipPath><clipPath id="7240d2f524"><path d="M 187.5 57.523438 C 115.496094 57.523438 57.121094 115.898438 57.121094 187.902344 C 57.121094 259.910156 115.496094 318.28125 187.5 318.28125 C 259.503906 318.28125 317.878906 259.910156 317.878906 187.902344 C 317.878906 115.898438 259.503906 57.523438 187.5 57.523438 Z M 187.5 57.523438 " clip-rule="nonzero"/></clipPath></defs><g clip-path="url(#b0866d1600)"><g clip-path="url(#7240d2f524)"><path fill="#ffffff" d="M 57.121094 57.523438 L 317.878906 57.523438 L 317.878906 318.28125 L 57.121094 318.28125 Z M 57.121094 57.523438 " fill-opacity="1" fill-rule="nonzero"/></g></g><g fill="#272727" fill-opacity="1"><g transform="translate(78.323683, 216.266769)"><g><path d="M 70.703125 0 L 70.703125 -34.296875 L 38.765625 -34.296875 L 38.765625 0 L 9.71875 0 L 9.71875 -90.421875 L 38.765625 -90.421875 L 38.765625 -57.4375 L 70.703125 -57.4375 L 70.703125 -90.421875 L 99.75 -90.421875 L 99.75 0 Z M 70.703125 0 "/></g></g></g><g fill="#272727" fill-opacity="1"><g transform="translate(104.429982, 242.006643)"><g><path d="M 4.09375 -5.46875 L 4.09375 0 L 0.984375 0 L 0.984375 -13.625 L 4.09375 -13.625 L 4.09375 -8.1875 L 8.484375 -8.1875 L 8.484375 -13.625 L 11.59375 -13.625 L 11.59375 0 L 8.484375 0 L 8.484375 -5.46875 Z M 4.09375 -5.46875 "/></g></g></g><g fill="#272727" fill-opacity="1"><g transform="translate(118.085914, 242.006643)"><g><path d="M 7.90625 -13.625 L 13.40625 0 L 10.078125 0 L 9.0625 -2.71875 L 3.875 -2.71875 L 2.875 0 L -0.46875 0 L 5.03125 -13.625 Z M 8.015625 -5.453125 L 6.484375 -9.40625 L 6.453125 -9.40625 L 4.9375 -5.453125 Z M 8.015625 -5.453125 "/></g></g></g><g fill="#272727" fill-opacity="1"><g transform="translate(132.105105, 242.006643)"><g><path d="M 12.4375 -13.625 L 5.6875 -2.71875 L 11.984375 -2.71875 L 11.984375 0 L 0.265625 0 L 7 -10.90625 L 1.21875 -10.90625 L 1.21875 -13.625 Z M 12.4375 -13.625 "/></g></g></g><g fill="#272727" fill-opacity="1"><g transform="translate(145.876623, 242.006643)"><g><path d="M 7.90625 -13.625 L 13.40625 0 L 10.078125 0 L 9.0625 -2.71875 L 3.875 -2.71875 L 2.875 0 L -0.46875 0 L 5.03125 -13.625 Z M 8.015625 -5.453125 L 6.484375 -9.40625 L 6.453125 -9.40625 L 4.9375 -5.453125 Z M 8.015625 -5.453125 "/></g></g></g><g fill="#272727" fill-opacity="1"><g transform="translate(159.895812, 242.006643)"><g><path d="M 8.78125 -13.625 L 8.78125 -10.90625 L 4.09375 -10.90625 L 4.09375 -8.1875 L 8.59375 -8.1875 L 8.59375 -5.46875 L 4.09375 -5.46875 L 4.09375 -2.71875 L 8.78125 -2.71875 L 8.78125 0 L 0.984375 0 L 0.984375 -13.625 Z M 8.78125 -13.625 "/></g></g></g><g fill="#272727" fill-opacity="1"><g transform="translate(170.546616, 242.006643)"><g><path d="M 4.09375 -13.625 L 4.09375 -2.71875 L 8.78125 -2.71875 L 8.78125 0 L 0.984375 0 L 0.984375 -13.625 Z M 4.09375 -13.625 "/></g></g></g><g fill="#272727" fill-opacity="1"><g transform="translate(180.949747, 242.006643)"><g/></g></g><g fill="#272727" fill-opacity="1"><g transform="translate(186.531471, 242.006643)"><g><path d="M 12.25 0 L 11.609375 -8.078125 L 11.53125 -8.078125 L 8.734375 -0.078125 L 6.890625 -0.078125 L 4.09375 -8.078125 L 4.015625 -8.078125 L 3.375 0 L 0.265625 0 L 1.484375 -13.625 L 4.796875 -13.625 L 7.8125 -5.765625 L 10.828125 -13.625 L 14.140625 -13.625 L 15.359375 0 Z M 12.25 0 "/></g></g></g><g fill="#272727" fill-opacity="1"><g transform="translate(203.225561, 242.006643)"><g><path d="M 0.375 -6.828125 C 0.375 -8.796875 1.046875 -10.460938 2.390625 -11.828125 C 3.734375 -13.191406 5.351562 -13.875 7.25 -13.875 C 9.15625 -13.875 10.773438 -13.191406 12.109375 -11.828125 C 13.441406 -10.472656 14.109375 -8.804688 14.109375 -6.828125 C 14.109375 -4.828125 13.453125 -3.144531 12.140625 -1.78125 C 10.828125 -0.425781 9.195312 0.25 7.25 0.25 C 5.257812 0.25 3.613281 -0.421875 2.3125 -1.765625 C 1.019531 -3.117188 0.375 -4.804688 0.375 -6.828125 Z M 3.734375 -6.828125 C 3.734375 -6.109375 3.84375 -5.453125 4.0625 -4.859375 C 4.28125 -4.273438 4.664062 -3.78125 5.21875 -3.375 C 5.769531 -2.96875 6.445312 -2.765625 7.25 -2.765625 C 8.40625 -2.765625 9.273438 -3.160156 9.859375 -3.953125 C 10.453125 -4.742188 10.75 -5.703125 10.75 -6.828125 C 10.75 -7.929688 10.445312 -8.882812 9.84375 -9.6875 C 9.25 -10.488281 8.382812 -10.890625 7.25 -10.890625 C 6.125 -10.890625 5.253906 -10.488281 4.640625 -9.6875 C 4.035156 -8.882812 3.734375 -7.929688 3.734375 -6.828125 Z M 3.734375 -6.828125 "/></g></g></g><g fill="#272727" fill-opacity="1"><g transform="translate(218.780347, 242.006643)"><g><path d="M 4.09375 -8.453125 L 4.09375 0 L 0.984375 0 L 0.984375 -13.625 L 4.09375 -13.625 L 9.515625 -5.171875 L 9.546875 -5.171875 L 9.546875 -13.625 L 12.65625 -13.625 L 12.65625 0 L 9.546875 0 L 4.125 -8.453125 Z M 4.09375 -8.453125 "/></g></g></g><g fill="#272727" fill-opacity="1"><g transform="translate(233.493031, 242.006643)"><g><path d="M 0.125 -10.90625 L 0.125 -13.625 L 9.71875 -13.625 L 9.71875 -10.90625 L 6.46875 -10.90625 L 6.46875 0 L 3.375 0 L 3.375 -10.90625 Z M 0.125 -10.90625 "/></g></g></g><g fill="#272727" fill-opacity="1"><g transform="translate(244.408027, 242.006643)"><g><path d="M 4.09375 -13.625 L 4.09375 0 L 0.984375 0 L 0.984375 -13.625 Z M 4.09375 -13.625 "/></g></g></g><g fill="#272727" fill-opacity="1"><g transform="translate(250.567661, 242.006643)"><g><path d="M 8.78125 -13.625 L 8.78125 -10.90625 L 4.09375 -10.90625 L 4.09375 -8.1875 L 8.59375 -8.1875 L 8.59375 -5.46875 L 4.09375 -5.46875 L 4.09375 -2.71875 L 8.78125 -2.71875 L 8.78125 0 L 0.984375 0 L 0.984375 -13.625 Z M 8.78125 -13.625 "/></g></g></g><g fill="#272727" fill-opacity="1"><g transform="translate(261.21847, 242.006643)"><g><path d="M 4.09375 -13.625 L 4.09375 -2.71875 L 8.78125 -2.71875 L 8.78125 0 L 0.984375 0 L 0.984375 -13.625 Z M 4.09375 -13.625 "/></g></g></g><g fill="#272727" fill-opacity="1"><g transform="translate(97.861098, 254.304271)"><g><path d="M 4.21875 -5.71875 L 4.21875 -5.15625 L 1.53125 -5.15625 L 1.53125 -3.078125 L 3.953125 -3.078125 L 3.953125 -2.515625 L 1.53125 -2.515625 L 1.53125 0 L 0.859375 0 L 0.859375 -5.71875 Z M 4.21875 -5.71875 "/></g></g></g><g fill="#272727" fill-opacity="1"><g transform="translate(107.11642, 254.304271)"><g><path d="M 2.953125 0.078125 C 2.242188 0.078125 1.707031 -0.0976562 1.34375 -0.453125 C 0.988281 -0.804688 0.8125 -1.332031 0.8125 -2.03125 L 0.8125 -5.71875 L 1.484375 -5.71875 L 1.484375 -2.046875 C 1.484375 -1.546875 1.601562 -1.171875 1.84375 -0.921875 C 2.082031 -0.671875 2.453125 -0.546875 2.953125 -0.546875 C 3.921875 -0.546875 4.40625 -1.046875 4.40625 -2.046875 L 4.40625 -5.71875 L 5.078125 -5.71875 L 5.078125 -2.03125 C 5.078125 -1.332031 4.894531 -0.804688 4.53125 -0.453125 C 4.175781 -0.0976562 3.648438 0.078125 2.953125 0.078125 Z M 2.953125 0.078125 "/></g></g></g><g fill="#272727" fill-opacity="1"><g transform="translate(117.731114, 254.304271)"><g><path d="M 1.53125 -5.71875 L 1.53125 -0.5625 L 4.28125 -0.5625 L 4.28125 0 L 0.859375 0 L 0.859375 -5.71875 Z M 1.53125 -5.71875 "/></g></g></g><g fill="#272727" fill-opacity="1"><g transform="translate(126.986437, 254.304271)"><g><path d="M 1.53125 -5.71875 L 1.53125 -0.5625 L 4.28125 -0.5625 L 4.28125 0 L 0.859375 0 L 0.859375 -5.71875 Z M 1.53125 -5.71875 "/></g></g></g><g fill="#272727" fill-opacity="1"><g transform="translate(136.241758, 254.304271)"><g><path d="M 2.5 0.078125 C 2.132812 0.078125 1.8125 0.03125 1.53125 -0.0625 C 1.25 -0.164062 1.007812 -0.296875 0.8125 -0.453125 C 0.625 -0.609375 0.484375 -0.78125 0.390625 -0.96875 L 0.765625 -1.421875 L 0.859375 -1.421875 C 1.210938 -0.828125 1.757812 -0.53125 2.5 -0.53125 C 2.925781 -0.53125 3.242188 -0.617188 3.453125 -0.796875 C 3.660156 -0.972656 3.765625 -1.222656 3.765625 -1.546875 C 3.765625 -1.734375 3.726562 -1.890625 3.65625 -2.015625 C 3.59375 -2.148438 3.484375 -2.265625 3.328125 -2.359375 C 3.171875 -2.453125 2.953125 -2.53125 2.671875 -2.59375 L 2.015625 -2.765625 C 1.515625 -2.878906 1.144531 -3.066406 0.90625 -3.328125 C 0.675781 -3.585938 0.5625 -3.921875 0.5625 -4.328125 C 0.5625 -4.609375 0.632812 -4.859375 0.78125 -5.078125 C 0.925781 -5.304688 1.140625 -5.484375 1.421875 -5.609375 C 1.703125 -5.734375 2.035156 -5.796875 2.421875 -5.796875 C 2.847656 -5.796875 3.207031 -5.734375 3.5 -5.609375 C 3.800781 -5.492188 4.039062 -5.3125 4.21875 -5.0625 L 3.890625 -4.625 L 3.796875 -4.625 C 3.628906 -4.820312 3.429688 -4.96875 3.203125 -5.0625 C 2.984375 -5.15625 2.722656 -5.203125 2.421875 -5.203125 C 2.023438 -5.203125 1.722656 -5.125 1.515625 -4.96875 C 1.316406 -4.820312 1.21875 -4.613281 1.21875 -4.34375 C 1.21875 -4.082031 1.289062 -3.875 1.4375 -3.71875 C 1.59375 -3.570312 1.847656 -3.457031 2.203125 -3.375 L 2.875 -3.203125 C 3.4375 -3.078125 3.835938 -2.878906 4.078125 -2.609375 C 4.328125 -2.335938 4.453125 -1.992188 4.453125 -1.578125 C 4.453125 -1.253906 4.378906 -0.96875 4.234375 -0.71875 C 4.097656 -0.46875 3.878906 -0.269531 3.578125 -0.125 C 3.285156 0.0078125 2.925781 0.078125 2.5 0.078125 Z M 2.5 0.078125 "/></g></g></g><g fill="#272727" fill-opacity="1"><g transform="translate(145.864267, 254.304271)"><g><path d="M 4.453125 -5.71875 L 4.453125 -5.140625 L 2.671875 -5.140625 L 2.671875 0 L 2 0 L 2 -5.140625 L 0.21875 -5.140625 L 0.21875 -5.71875 Z M 4.453125 -5.71875 "/></g></g></g><g fill="#272727" fill-opacity="1"><g transform="translate(155.256309, 254.304271)"><g><path d="M 5.140625 0 L 4.421875 0 L 3.890625 -1.5625 L 1.46875 -1.5625 L 0.9375 0 L 0.234375 0 L 2.21875 -5.71875 L 3.15625 -5.71875 Z M 2.625 -5.015625 L 1.65625 -2.125 L 3.703125 -2.125 L 2.734375 -5.015625 Z M 2.625 -5.015625 "/></g></g></g><g fill="#272727" fill-opacity="1"><g transform="translate(165.351475, 254.304271)"><g><path d="M 3.15625 0.078125 C 2.65625 0.078125 2.207031 -0.0351562 1.8125 -0.265625 C 1.425781 -0.492188 1.125 -0.828125 0.90625 -1.265625 C 0.6875 -1.710938 0.578125 -2.242188 0.578125 -2.859375 C 0.578125 -3.472656 0.6875 -4 0.90625 -4.4375 C 1.125 -4.882812 1.425781 -5.222656 1.8125 -5.453125 C 2.207031 -5.679688 2.65625 -5.796875 3.15625 -5.796875 C 3.6875 -5.796875 4.128906 -5.691406 4.484375 -5.484375 C 4.835938 -5.285156 5.09375 -4.984375 5.25 -4.578125 L 4.828125 -4.296875 L 4.734375 -4.296875 C 4.578125 -4.617188 4.375 -4.847656 4.125 -4.984375 C 3.875 -5.117188 3.550781 -5.1875 3.15625 -5.1875 C 2.800781 -5.1875 2.484375 -5.109375 2.203125 -4.953125 C 1.921875 -4.796875 1.695312 -4.539062 1.53125 -4.1875 C 1.375 -3.84375 1.296875 -3.398438 1.296875 -2.859375 C 1.296875 -2.316406 1.375 -1.867188 1.53125 -1.515625 C 1.695312 -1.171875 1.921875 -0.921875 2.203125 -0.765625 C 2.484375 -0.609375 2.800781 -0.53125 3.15625 -0.53125 C 3.570312 -0.53125 3.910156 -0.617188 4.171875 -0.796875 C 4.429688 -0.984375 4.628906 -1.285156 4.765625 -1.703125 L 4.859375 -1.703125 L 5.3125 -1.484375 C 5.175781 -0.984375 4.921875 -0.597656 4.546875 -0.328125 C 4.179688 -0.0546875 3.71875 0.078125 3.15625 0.078125 Z M 3.15625 0.078125 "/></g></g></g><g fill="#272727" fill-opacity="1"><g transform="translate(175.681016, 254.304271)"><g><path d="M 0.859375 0 L 0.859375 -5.71875 L 1.53125 -5.71875 L 1.53125 -3.21875 L 1.65625 -3.21875 L 4 -5.71875 L 4.734375 -5.71875 L 4.734375 -5.609375 L 2.265625 -2.953125 L 4.9375 -0.09375 L 4.9375 0 L 4.15625 0 L 1.65625 -2.625 L 1.53125 -2.625 L 1.53125 0 Z M 0.859375 0 "/></g></g></g><g fill="#272727" fill-opacity="1"><g transform="translate(185.448052, 254.304271)"><g/></g></g><g fill="#272727" fill-opacity="1"><g transform="translate(192.136971, 254.304271)"><g><path d="M 2.71875 -5.71875 C 3.289062 -5.71875 3.785156 -5.613281 4.203125 -5.40625 C 4.617188 -5.195312 4.9375 -4.878906 5.15625 -4.453125 C 5.382812 -4.023438 5.5 -3.492188 5.5 -2.859375 C 5.5 -2.210938 5.382812 -1.675781 5.15625 -1.25 C 4.9375 -0.832031 4.617188 -0.519531 4.203125 -0.3125 C 3.785156 -0.101562 3.289062 0 2.71875 0 L 0.859375 0 L 0.859375 -5.71875 Z M 2.640625 -0.578125 C 3.117188 -0.578125 3.515625 -0.648438 3.828125 -0.796875 C 4.140625 -0.941406 4.375 -1.179688 4.53125 -1.515625 C 4.695312 -1.859375 4.78125 -2.304688 4.78125 -2.859375 C 4.78125 -3.410156 4.695312 -3.851562 4.53125 -4.1875 C 4.375 -4.53125 4.140625 -4.773438 3.828125 -4.921875 C 3.515625 -5.066406 3.117188 -5.140625 2.640625 -5.140625 L 1.53125 -5.140625 L 1.53125 -0.578125 Z M 2.640625 -0.578125 "/></g></g></g><g fill="#272727" fill-opacity="1"><g transform="translate(202.935255, 254.304271)"><g><path d="M 1.53125 -2.6875 L 1.53125 -0.5625 L 4.453125 -0.5625 L 4.453125 0 L 0.859375 0 L 0.859375 -5.71875 L 4.390625 -5.71875 L 4.390625 -5.15625 L 1.53125 -5.15625 L 1.53125 -3.25 L 4.046875 -3.25 L 4.046875 -2.6875 Z M 1.53125 -2.6875 "/></g></g></g><g fill="#272727" fill-opacity="1"><g transform="translate(212.487449, 254.304271)"><g><path d="M 3.109375 0 L 2.234375 0 L 0.25 -5.71875 L 0.96875 -5.71875 L 2.640625 -0.84375 L 2.734375 -0.84375 L 4.390625 -5.71875 L 5.09375 -5.71875 Z M 3.109375 0 "/></g></g></g><g fill="#272727" fill-opacity="1"><g transform="translate(222.551359, 254.304271)"><g><path d="M 1.53125 -2.6875 L 1.53125 -0.5625 L 4.453125 -0.5625 L 4.453125 0 L 0.859375 0 L 0.859375 -5.71875 L 4.390625 -5.71875 L 4.390625 -5.15625 L 1.53125 -5.15625 L 1.53125 -3.25 L 4.046875 -3.25 L 4.046875 -2.6875 Z M 1.53125 -2.6875 "/></g></g></g><g fill="#272727" fill-opacity="1"><g transform="translate(232.103553, 254.304271)"><g><path d="M 1.53125 -5.71875 L 1.53125 -0.5625 L 4.28125 -0.5625 L 4.28125 0 L 0.859375 0 L 0.859375 -5.71875 Z M 1.53125 -5.71875 "/></g></g></g><g fill="#272727" fill-opacity="1"><g transform="translate(241.358872, 254.304271)"><g><path d="M 3.140625 0.078125 C 2.640625 0.078125 2.195312 -0.0234375 1.8125 -0.234375 C 1.425781 -0.453125 1.125 -0.78125 0.90625 -1.21875 C 0.6875 -1.65625 0.578125 -2.203125 0.578125 -2.859375 C 0.578125 -3.515625 0.6875 -4.0625 0.90625 -4.5 C 1.125 -4.9375 1.425781 -5.257812 1.8125 -5.46875 C 2.195312 -5.6875 2.640625 -5.796875 3.140625 -5.796875 C 3.628906 -5.796875 4.066406 -5.6875 4.453125 -5.46875 C 4.835938 -5.257812 5.140625 -4.9375 5.359375 -4.5 C 5.585938 -4.0625 5.703125 -3.515625 5.703125 -2.859375 C 5.703125 -2.203125 5.585938 -1.65625 5.359375 -1.21875 C 5.140625 -0.78125 4.835938 -0.453125 4.453125 -0.234375 C 4.066406 -0.0234375 3.628906 0.078125 3.140625 0.078125 Z M 3.140625 -0.546875 C 3.734375 -0.546875 4.1875 -0.726562 4.5 -1.09375 C 4.820312 -1.46875 4.984375 -2.054688 4.984375 -2.859375 C 4.984375 -3.660156 4.820312 -4.242188 4.5 -4.609375 C 4.1875 -4.984375 3.734375 -5.171875 3.140625 -5.171875 C 1.910156 -5.171875 1.296875 -4.398438 1.296875 -2.859375 C 1.296875 -1.316406 1.910156 -0.546875 3.140625 -0.546875 Z M 3.140625 -0.546875 "/></g></g></g><g fill="#272727" fill-opacity="1"><g transform="translate(252.352468, 254.304271)"><g><path d="M 2.90625 -5.71875 C 3.300781 -5.71875 3.640625 -5.644531 3.921875 -5.5 C 4.203125 -5.363281 4.414062 -5.160156 4.5625 -4.890625 C 4.707031 -4.628906 4.78125 -4.320312 4.78125 -3.96875 C 4.78125 -3.613281 4.707031 -3.304688 4.5625 -3.046875 C 4.414062 -2.785156 4.203125 -2.582031 3.921875 -2.4375 C 3.640625 -2.300781 3.300781 -2.234375 2.90625 -2.234375 L 1.53125 -2.234375 L 1.53125 0 L 0.859375 0 L 0.859375 -5.71875 Z M 2.890625 -2.8125 C 3.679688 -2.8125 4.078125 -3.195312 4.078125 -3.96875 C 4.078125 -4.75 3.679688 -5.140625 2.890625 -5.140625 L 1.53125 -5.140625 L 1.53125 -2.8125 Z M 2.890625 -2.8125 "/></g></g></g><g fill="#272727" fill-opacity="1"><g transform="translate(262.287473, 254.304271)"><g><path d="M 1.53125 -2.6875 L 1.53125 -0.5625 L 4.453125 -0.5625 L 4.453125 0 L 0.859375 0 L 0.859375 -5.71875 L 4.390625 -5.71875 L 4.390625 -5.15625 L 1.53125 -5.15625 L 1.53125 -3.25 L 4.046875 -3.25 L 4.046875 -2.6875 Z M 1.53125 -2.6875 "/></g></g></g><g fill="#272727" fill-opacity="1"><g transform="translate(271.839677, 254.304271)"><g><path d="M 0.859375 0 L 0.859375 -5.71875 L 2.9375 -5.71875 C 3.320312 -5.71875 3.644531 -5.648438 3.90625 -5.515625 C 4.164062 -5.390625 4.359375 -5.210938 4.484375 -4.984375 C 4.617188 -4.753906 4.6875 -4.484375 4.6875 -4.171875 C 4.6875 -3.816406 4.597656 -3.523438 4.421875 -3.296875 C 4.242188 -3.066406 3.96875 -2.894531 3.59375 -2.78125 L 3.59375 -2.6875 C 3.78125 -2.613281 3.929688 -2.5 4.046875 -2.34375 C 4.160156 -2.1875 4.269531 -1.957031 4.375 -1.65625 L 4.890625 0 L 4.203125 0 L 3.640625 -1.75 C 3.566406 -1.957031 3.484375 -2.117188 3.390625 -2.234375 C 3.304688 -2.347656 3.195312 -2.429688 3.0625 -2.484375 C 2.925781 -2.535156 2.753906 -2.5625 2.546875 -2.5625 L 1.53125 -2.5625 L 1.53125 0 Z M 2.921875 -3.140625 C 3.273438 -3.140625 3.539062 -3.21875 3.71875 -3.375 C 3.894531 -3.539062 3.984375 -3.796875 3.984375 -4.140625 C 3.984375 -4.472656 3.894531 -4.722656 3.71875 -4.890625 C 3.539062 -5.054688 3.273438 -5.140625 2.921875 -5.140625 L 1.53125 -5.140625 L 1.53125 -3.140625 Z M 2.921875 -3.140625 "/></g></g></g><g fill="#272727" fill-opacity="1"><g transform="translate(174.089848, 216.065992)"><g><path d="M 87.890625 0 L 87.890625 -32.78125 C 87.890625 -36.832031 88.039062 -40.992188 88.34375 -45.265625 C 88.65625 -49.535156 88.988281 -53.125 89.34375 -56.03125 C 89.695312 -58.945312 89.921875 -60.800781 90.015625 -61.59375 L 89.484375 -61.59375 L 72.6875 0 L 49.828125 0 L 32.90625 -61.453125 L 32.375 -61.453125 C 32.46875 -60.660156 32.710938 -58.832031 33.109375 -55.96875 C 33.503906 -53.101562 33.878906 -49.535156 34.234375 -45.265625 C 34.585938 -40.992188 34.765625 -36.832031 34.765625 -32.78125 L 34.765625 0 L 7.9375 0 L 7.9375 -90.9375 L 49.171875 -90.9375 L 62.90625 -38.46875 L 63.4375 -38.46875 L 77.0625 -90.9375 L 116.84375 -90.9375 L 116.84375 0 Z M 87.890625 0 "/></g></g></g></svg>