<svg xmlns="http://www.w3.org/2000/svg" xmlns:xlink="http://www.w3.org/1999/xlink" width="500" zoomAndPan="magnify" viewBox="0 0 375 374.999991" height="500" preserveAspectRatio="xMidYMid meet" version="1.0"><defs><g/><clipPath id="df6427172c"><path d="M 57.121094 57.523438 L 317.878906 57.523438 L 317.878906 318.28125 L 57.121094 318.28125 Z M 57.121094 57.523438 " clip-rule="nonzero"/></clipPath><clipPath id="c3af817afe"><path d="M 187.5 57.523438 C 115.496094 57.523438 57.121094 115.898438 57.121094 187.902344 C 57.121094 259.910156 115.496094 318.28125 187.5 318.28125 C 259.503906 318.28125 317.878906 259.910156 317.878906 187.902344 C 317.878906 115.898438 259.503906 57.523438 187.5 57.523438 Z M 187.5 57.523438 " clip-rule="nonzero"/></clipPath></defs><rect x="-37.5" width="450" fill="#ffffff" y="-37.499999" height="449.999989" fill-opacity="1"/><rect x="-37.5" width="450" fill="#272727" y="-37.499999" height="449.999989" fill-opacity="1"/><g clip-path="url(#df6427172c)"><g clip-path="url(#c3af817afe)"><path fill="#ffffff" d="M 57.121094 57.523438 L 317.878906 57.523438 L 317.878906 318.28125 L 57.121094 318.28125 Z M 57.121094 57.523438 " fill-opacity="1" fill-rule="nonzero"/></g></g><g fill="#272727" fill-opacity="1"><g transform="translate(132.757734, 212.024554)"><g><path d="M 70.703125 0 L 70.703125 -34.296875 L 38.765625 -34.296875 L 38.765625 0 L 9.71875 0 L 9.71875 -90.421875 L 38.765625 -90.421875 L 38.765625 -57.4375 L 70.703125 -57.4375 L 70.703125 -90.421875 L 99.75 -90.421875 L 99.75 0 Z M 70.703125 0 "/></g></g></g><g fill="#272727" fill-opacity="1"><g transform="translate(146.969042, 242.006643)"><g><path d="M 4.09375 -5.46875 L 4.09375 0 L 0.984375 0 L 0.984375 -13.625 L 4.09375 -13.625 L 4.09375 -8.1875 L 8.484375 -8.1875 L 8.484375 -13.625 L 11.59375 -13.625 L 11.59375 0 L 8.484375 0 L 8.484375 -5.46875 Z M 4.09375 -5.46875 "/></g></g></g><g fill="#272727" fill-opacity="1"><g transform="translate(160.624974, 242.006643)"><g><path d="M 7.90625 -13.625 L 13.40625 0 L 10.078125 0 L 9.0625 -2.71875 L 3.875 -2.71875 L 2.875 0 L -0.46875 0 L 5.03125 -13.625 Z M 8.015625 -5.453125 L 6.484375 -9.40625 L 6.453125 -9.40625 L 4.9375 -5.453125 Z M 8.015625 -5.453125 "/></g></g></g><g fill="#272727" fill-opacity="1"><g transform="translate(174.644164, 242.006643)"><g><path d="M 12.4375 -13.625 L 5.6875 -2.71875 L 11.984375 -2.71875 L 11.984375 0 L 0.265625 0 L 7 -10.90625 L 1.21875 -10.90625 L 1.21875 -13.625 Z M 12.4375 -13.625 "/></g></g></g><g fill="#272727" fill-opacity="1"><g transform="translate(188.415683, 242.006643)"><g><path d="M 7.90625 -13.625 L 13.40625 0 L 10.078125 0 L 9.0625 -2.71875 L 3.875 -2.71875 L 2.875 0 L -0.46875 0 L 5.03125 -13.625 Z M 8.015625 -5.453125 L 6.484375 -9.40625 L 6.453125 -9.40625 L 4.9375 -5.453125 Z M 8.015625 -5.453125 "/></g></g></g><g fill="#272727" fill-opacity="1"><g transform="translate(202.434872, 242.006643)"><g><path d="M 8.78125 -13.625 L 8.78125 -10.90625 L 4.09375 -10.90625 L 4.09375 -8.1875 L 8.59375 -8.1875 L 8.59375 -5.46875 L 4.09375 -5.46875 L 4.09375 -2.71875 L 8.78125 -2.71875 L 8.78125 0 L 0.984375 0 L 0.984375 -13.625 Z M 8.78125 -13.625 "/></g></g></g><g fill="#272727" fill-opacity="1"><g transform="translate(213.085676, 242.006643)"><g><path d="M 4.09375 -13.625 L 4.09375 -2.71875 L 8.78125 -2.71875 L 8.78125 0 L 0.984375 0 L 0.984375 -13.625 Z M 4.09375 -13.625 "/></g></g></g><g fill="#272727" fill-opacity="1"><g transform="translate(223.492474, 242.006643)"><g/></g></g><g fill="#272727" fill-opacity="1"><g transform="translate(120.179748, 259.30428)"><g><path d="M 6.859375 -9.28125 L 6.859375 -8.375 L 2.5 -8.375 L 2.5 -5 L 6.421875 -5 L 6.421875 -4.09375 L 2.5 -4.09375 L 2.5 0 L 1.40625 0 L 1.40625 -9.28125 Z M 6.859375 -9.28125 "/></g></g></g><g fill="#272727" fill-opacity="1"><g transform="translate(135.217416, 259.30428)"><g><path d="M 4.78125 0.140625 C 3.644531 0.140625 2.785156 -0.144531 2.203125 -0.71875 C 1.617188 -1.300781 1.328125 -2.160156 1.328125 -3.296875 L 1.328125 -9.28125 L 2.40625 -9.28125 L 2.40625 -3.3125 C 2.40625 -2.5 2.601562 -1.890625 3 -1.484375 C 3.394531 -1.078125 3.988281 -0.875 4.78125 -0.875 C 6.363281 -0.875 7.15625 -1.6875 7.15625 -3.3125 L 7.15625 -9.28125 L 8.25 -9.28125 L 8.25 -3.296875 C 8.25 -2.160156 7.957031 -1.300781 7.375 -0.71875 C 6.789062 -0.144531 5.925781 0.140625 4.78125 0.140625 Z M 4.78125 0.140625 "/></g></g></g><g fill="#272727" fill-opacity="1"><g transform="translate(152.463406, 259.30428)"><g><path d="M 2.5 -9.28125 L 2.5 -0.90625 L 6.96875 -0.90625 L 6.96875 0 L 1.40625 0 L 1.40625 -9.28125 Z M 2.5 -9.28125 "/></g></g></g><g fill="#272727" fill-opacity="1"><g transform="translate(167.501076, 259.30428)"><g><path d="M 2.5 -9.28125 L 2.5 -0.90625 L 6.96875 -0.90625 L 6.96875 0 L 1.40625 0 L 1.40625 -9.28125 Z M 2.5 -9.28125 "/></g></g></g><g fill="#272727" fill-opacity="1"><g transform="translate(182.538743, 259.30428)"><g><path d="M 4.0625 0.140625 C 3.476562 0.140625 2.953125 0.0625 2.484375 -0.09375 C 2.023438 -0.257812 1.640625 -0.472656 1.328125 -0.734375 C 1.015625 -0.992188 0.785156 -1.273438 0.640625 -1.578125 L 1.234375 -2.296875 L 1.390625 -2.296875 C 1.960938 -1.328125 2.851562 -0.84375 4.0625 -0.84375 C 4.757812 -0.84375 5.273438 -0.988281 5.609375 -1.28125 C 5.953125 -1.582031 6.125 -1.988281 6.125 -2.5 C 6.125 -2.8125 6.066406 -3.070312 5.953125 -3.28125 C 5.847656 -3.488281 5.664062 -3.664062 5.40625 -3.8125 C 5.144531 -3.96875 4.789062 -4.101562 4.34375 -4.21875 L 3.265625 -4.484375 C 2.453125 -4.679688 1.851562 -4.988281 1.46875 -5.40625 C 1.09375 -5.832031 0.90625 -6.375 0.90625 -7.03125 C 0.90625 -7.488281 1.019531 -7.894531 1.25 -8.25 C 1.488281 -8.613281 1.835938 -8.894531 2.296875 -9.09375 C 2.753906 -9.300781 3.300781 -9.40625 3.9375 -9.40625 C 4.632812 -9.40625 5.222656 -9.304688 5.703125 -9.109375 C 6.179688 -8.921875 6.566406 -8.628906 6.859375 -8.234375 L 6.328125 -7.515625 L 6.15625 -7.515625 C 5.894531 -7.835938 5.582031 -8.078125 5.21875 -8.234375 C 4.851562 -8.390625 4.425781 -8.46875 3.9375 -8.46875 C 3.289062 -8.46875 2.800781 -8.34375 2.46875 -8.09375 C 2.144531 -7.84375 1.984375 -7.492188 1.984375 -7.046875 C 1.984375 -6.628906 2.101562 -6.296875 2.34375 -6.046875 C 2.582031 -5.804688 2.988281 -5.617188 3.5625 -5.484375 L 4.671875 -5.21875 C 5.578125 -5 6.234375 -4.671875 6.640625 -4.234375 C 7.046875 -3.796875 7.25 -3.238281 7.25 -2.5625 C 7.25 -2.03125 7.128906 -1.5625 6.890625 -1.15625 C 6.648438 -0.757812 6.289062 -0.441406 5.8125 -0.203125 C 5.34375 0.0234375 4.757812 0.140625 4.0625 0.140625 Z M 4.0625 0.140625 "/></g></g></g><g fill="#272727" fill-opacity="1"><g transform="translate(198.17291, 259.30428)"><g><path d="M 7.25 -9.28125 L 7.25 -8.359375 L 4.328125 -8.359375 L 4.328125 0 L 3.25 0 L 3.25 -8.359375 L 0.34375 -8.359375 L 0.34375 -9.28125 Z M 7.25 -9.28125 "/></g></g></g><g fill="#272727" fill-opacity="1"><g transform="translate(213.432673, 259.30428)"><g><path d="M 8.359375 0 L 7.1875 0 L 6.328125 -2.546875 L 2.375 -2.546875 L 1.515625 0 L 0.375 0 L 3.609375 -9.28125 L 5.109375 -9.28125 Z M 4.265625 -8.15625 L 2.671875 -3.453125 L 6.015625 -3.453125 L 4.4375 -8.15625 Z M 4.265625 -8.15625 "/></g></g></g><g fill="#272727" fill-opacity="1"><g transform="translate(229.83467, 259.30428)"><g><path d="M 5.125 0.140625 C 4.3125 0.140625 3.585938 -0.046875 2.953125 -0.421875 C 2.316406 -0.796875 1.816406 -1.34375 1.453125 -2.0625 C 1.097656 -2.78125 0.921875 -3.640625 0.921875 -4.640625 C 0.921875 -5.640625 1.097656 -6.5 1.453125 -7.21875 C 1.816406 -7.9375 2.316406 -8.476562 2.953125 -8.84375 C 3.585938 -9.21875 4.3125 -9.40625 5.125 -9.40625 C 6 -9.40625 6.722656 -9.242188 7.296875 -8.921875 C 7.867188 -8.597656 8.28125 -8.101562 8.53125 -7.4375 L 7.84375 -6.96875 L 7.6875 -6.96875 C 7.425781 -7.5 7.09375 -7.875 6.6875 -8.09375 C 6.28125 -8.320312 5.757812 -8.4375 5.125 -8.4375 C 4.539062 -8.4375 4.019531 -8.304688 3.5625 -8.046875 C 3.113281 -7.785156 2.753906 -7.367188 2.484375 -6.796875 C 2.222656 -6.234375 2.09375 -5.515625 2.09375 -4.640625 C 2.09375 -3.753906 2.222656 -3.03125 2.484375 -2.46875 C 2.753906 -1.90625 3.113281 -1.492188 3.5625 -1.234375 C 4.019531 -0.972656 4.539062 -0.84375 5.125 -0.84375 C 5.800781 -0.84375 6.351562 -0.992188 6.78125 -1.296875 C 7.207031 -1.609375 7.523438 -2.101562 7.734375 -2.78125 L 7.890625 -2.78125 L 8.625 -2.40625 C 8.40625 -1.59375 7.992188 -0.960938 7.390625 -0.515625 C 6.796875 -0.078125 6.039062 0.140625 5.125 0.140625 Z M 5.125 0.140625 "/></g></g></g><g fill="#272727" fill-opacity="1"><g transform="translate(246.617419, 259.30428)"><g><path d="M 1.40625 0 L 1.40625 -9.28125 L 2.5 -9.28125 L 2.5 -5.21875 L 2.6875 -5.21875 L 6.5 -9.28125 L 7.6875 -9.28125 L 7.6875 -9.125 L 3.671875 -4.78125 L 8.015625 -0.15625 L 8.015625 0 L 6.765625 0 L 2.6875 -4.265625 L 2.5 -4.265625 L 2.5 0 Z M 1.40625 0 "/></g></g></g><g fill="#272727" fill-opacity="1"><g transform="translate(118.445373, 277.304279)"><g><path d="M 4.40625 -9.28125 C 5.34375 -9.28125 6.148438 -9.109375 6.828125 -8.765625 C 7.503906 -8.429688 8.023438 -7.921875 8.390625 -7.234375 C 8.753906 -6.546875 8.9375 -5.679688 8.9375 -4.640625 C 8.9375 -3.597656 8.753906 -2.734375 8.390625 -2.046875 C 8.023438 -1.359375 7.503906 -0.84375 6.828125 -0.5 C 6.148438 -0.164062 5.34375 0 4.40625 0 L 1.40625 0 L 1.40625 -9.28125 Z M 4.296875 -0.921875 C 5.066406 -0.921875 5.707031 -1.039062 6.21875 -1.28125 C 6.726562 -1.53125 7.113281 -1.925781 7.375 -2.46875 C 7.632812 -3.007812 7.765625 -3.734375 7.765625 -4.640625 C 7.765625 -5.546875 7.632812 -6.269531 7.375 -6.8125 C 7.113281 -7.351562 6.726562 -7.742188 6.21875 -7.984375 C 5.707031 -8.234375 5.066406 -8.359375 4.296875 -8.359375 L 2.5 -8.359375 L 2.5 -0.921875 Z M 4.296875 -0.921875 "/></g></g></g><g fill="#272727" fill-opacity="1"><g transform="translate(135.989607, 277.304279)"><g><path d="M 2.5 -4.375 L 2.5 -0.90625 L 7.21875 -0.90625 L 7.21875 0 L 1.40625 0 L 1.40625 -9.28125 L 7.125 -9.28125 L 7.125 -8.375 L 2.5 -8.375 L 2.5 -5.28125 L 6.578125 -5.28125 L 6.578125 -4.375 Z M 2.5 -4.375 "/></g></g></g><g fill="#272727" fill-opacity="1"><g transform="translate(151.509552, 277.304279)"><g><path d="M 5.046875 0 L 3.625 0 L 0.40625 -9.28125 L 1.5625 -9.28125 L 4.28125 -1.359375 L 4.4375 -1.359375 L 7.140625 -9.28125 L 8.28125 -9.28125 Z M 5.046875 0 "/></g></g></g><g fill="#272727" fill-opacity="1"><g transform="translate(167.860786, 277.304279)"><g><path d="M 2.5 -4.375 L 2.5 -0.90625 L 7.21875 -0.90625 L 7.21875 0 L 1.40625 0 L 1.40625 -9.28125 L 7.125 -9.28125 L 7.125 -8.375 L 2.5 -8.375 L 2.5 -5.28125 L 6.578125 -5.28125 L 6.578125 -4.375 Z M 2.5 -4.375 "/></g></g></g><g fill="#272727" fill-opacity="1"><g transform="translate(183.38073, 277.304279)"><g><path d="M 2.5 -9.28125 L 2.5 -0.90625 L 6.96875 -0.90625 L 6.96875 0 L 1.40625 0 L 1.40625 -9.28125 Z M 2.5 -9.28125 "/></g></g></g><g fill="#272727" fill-opacity="1"><g transform="translate(198.418397, 277.304279)"><g><path d="M 5.09375 0.140625 C 4.289062 0.140625 3.570312 -0.03125 2.9375 -0.375 C 2.3125 -0.726562 1.816406 -1.257812 1.453125 -1.96875 C 1.097656 -2.6875 0.921875 -3.578125 0.921875 -4.640625 C 0.921875 -5.703125 1.097656 -6.585938 1.453125 -7.296875 C 1.816406 -8.015625 2.3125 -8.546875 2.9375 -8.890625 C 3.570312 -9.234375 4.289062 -9.40625 5.09375 -9.40625 C 5.894531 -9.40625 6.609375 -9.234375 7.234375 -8.890625 C 7.859375 -8.546875 8.347656 -8.015625 8.703125 -7.296875 C 9.066406 -6.585938 9.25 -5.703125 9.25 -4.640625 C 9.25 -3.578125 9.066406 -2.6875 8.703125 -1.96875 C 8.347656 -1.257812 7.859375 -0.726562 7.234375 -0.375 C 6.609375 -0.03125 5.894531 0.140625 5.09375 0.140625 Z M 5.09375 -0.875 C 6.050781 -0.875 6.789062 -1.175781 7.3125 -1.78125 C 7.832031 -2.382812 8.09375 -3.335938 8.09375 -4.640625 C 8.09375 -5.941406 7.832031 -6.894531 7.3125 -7.5 C 6.789062 -8.101562 6.050781 -8.40625 5.09375 -8.40625 C 3.09375 -8.40625 2.09375 -7.148438 2.09375 -4.640625 C 2.09375 -2.128906 3.09375 -0.875 5.09375 -0.875 Z M 5.09375 -0.875 "/></g></g></g><g fill="#272727" fill-opacity="1"><g transform="translate(216.279923, 277.304279)"><g><path d="M 4.71875 -9.28125 C 5.363281 -9.28125 5.910156 -9.164062 6.359375 -8.9375 C 6.816406 -8.707031 7.164062 -8.378906 7.40625 -7.953125 C 7.644531 -7.523438 7.765625 -7.023438 7.765625 -6.453125 C 7.765625 -5.878906 7.644531 -5.378906 7.40625 -4.953125 C 7.164062 -4.535156 6.816406 -4.207031 6.359375 -3.96875 C 5.910156 -3.738281 5.363281 -3.625 4.71875 -3.625 L 2.5 -3.625 L 2.5 0 L 1.40625 0 L 1.40625 -9.28125 Z M 4.6875 -4.5625 C 5.976562 -4.5625 6.625 -5.191406 6.625 -6.453125 C 6.625 -7.722656 5.976562 -8.359375 4.6875 -8.359375 L 2.5 -8.359375 L 2.5 -4.5625 Z M 4.6875 -4.5625 "/></g></g></g><g fill="#272727" fill-opacity="1"><g transform="translate(232.421756, 277.304279)"><g><path d="M 2.5 -4.375 L 2.5 -0.90625 L 7.21875 -0.90625 L 7.21875 0 L 1.40625 0 L 1.40625 -9.28125 L 7.125 -9.28125 L 7.125 -8.375 L 2.5 -8.375 L 2.5 -5.28125 L 6.578125 -5.28125 L 6.578125 -4.375 Z M 2.5 -4.375 "/></g></g></g><g fill="#272727" fill-opacity="1"><g transform="translate(247.941706, 277.304279)"><g><path d="M 1.40625 0 L 1.40625 -9.28125 L 4.78125 -9.28125 C 5.394531 -9.28125 5.910156 -9.175781 6.328125 -8.96875 C 6.753906 -8.769531 7.070312 -8.484375 7.28125 -8.109375 C 7.5 -7.734375 7.609375 -7.285156 7.609375 -6.765625 C 7.609375 -6.191406 7.460938 -5.71875 7.171875 -5.34375 C 6.890625 -4.96875 6.441406 -4.6875 5.828125 -4.5 L 5.828125 -4.375 C 6.128906 -4.257812 6.375 -4.070312 6.5625 -3.8125 C 6.757812 -3.5625 6.9375 -3.179688 7.09375 -2.671875 L 7.953125 0 L 6.828125 0 L 5.90625 -2.84375 C 5.789062 -3.175781 5.660156 -3.4375 5.515625 -3.625 C 5.378906 -3.8125 5.195312 -3.945312 4.96875 -4.03125 C 4.75 -4.125 4.472656 -4.171875 4.140625 -4.171875 L 2.5 -4.171875 L 2.5 0 Z M 4.75 -5.09375 C 5.332031 -5.09375 5.765625 -5.222656 6.046875 -5.484375 C 6.328125 -5.753906 6.46875 -6.164062 6.46875 -6.71875 C 6.46875 -7.269531 6.328125 -7.679688 6.046875 -7.953125 C 5.765625 -8.222656 5.332031 -8.359375 4.75 -8.359375 L 2.5 -8.359375 L 2.5 -5.09375 Z M 4.75 -5.09375 "/></g></g></g></svg>