<svg xmlns="http://www.w3.org/2000/svg" xmlns:xlink="http://www.w3.org/1999/xlink" width="500" zoomAndPan="magnify" viewBox="0 0 375 374.999991" height="500" preserveAspectRatio="xMidYMid meet" version="1.0"><defs><g/><clipPath id="43d37b2896"><path d="M 66.386719 56.433594 L 317.878906 56.433594 L 317.878906 307.925781 L 66.386719 307.925781 Z M 66.386719 56.433594 " clip-rule="nonzero"/></clipPath><clipPath id="62a39cd0a1"><path d="M 192.132812 56.433594 C 122.6875 56.433594 66.386719 112.734375 66.386719 182.179688 C 66.386719 251.625 122.6875 307.925781 192.132812 307.925781 C 261.578125 307.925781 317.878906 251.625 317.878906 182.179688 C 317.878906 112.734375 261.578125 56.433594 192.132812 56.433594 Z M 192.132812 56.433594 " clip-rule="nonzero"/></clipPath></defs><rect x="-37.5" width="450" fill="#ffffff" y="-37.499999" height="449.999989" fill-opacity="1"/><rect x="-37.5" width="450" fill="#272727" y="-37.499999" height="449.999989" fill-opacity="1"/><g clip-path="url(#43d37b2896)"><g clip-path="url(#62a39cd0a1)"><path fill="#ffffff" d="M 66.386719 56.433594 L 317.878906 56.433594 L 317.878906 307.925781 L 66.386719 307.925781 Z M 66.386719 56.433594 " fill-opacity="1" fill-rule="nonzero"/></g></g><g fill="#272727" fill-opacity="1"><g transform="translate(86.397245, 185.883269)"><g><path d="M 2.640625 0 L 2.640625 -0.671875 C 3.429688 -0.910156 3.972656 -1.425781 4.265625 -2.21875 C 4.554688 -3.007812 4.703125 -4.457031 4.703125 -6.5625 L 4.703125 -29.640625 C 4.703125 -31.773438 4.554688 -33.226562 4.265625 -34 C 3.972656 -34.78125 3.429688 -35.289062 2.640625 -35.53125 L 2.640625 -36.203125 L 11.015625 -36.203125 L 11.015625 -35.53125 C 10.222656 -35.289062 9.679688 -34.78125 9.390625 -34 C 9.097656 -33.226562 8.953125 -31.773438 8.953125 -29.640625 L 8.953125 -19.59375 L 28.65625 -19.59375 L 28.65625 -29.640625 C 28.65625 -31.773438 28.503906 -33.226562 28.203125 -34 C 27.910156 -34.78125 27.367188 -35.289062 26.578125 -35.53125 L 26.578125 -36.203125 L 34.96875 -36.203125 L 34.96875 -35.53125 C 34.164062 -35.289062 33.617188 -34.78125 33.328125 -34 C 33.035156 -33.226562 32.890625 -31.773438 32.890625 -29.640625 L 32.890625 -6.5625 C 32.890625 -4.457031 33.035156 -3.007812 33.328125 -2.21875 C 33.617188 -1.425781 34.164062 -0.910156 34.96875 -0.671875 L 34.96875 0 L 26.578125 0 L 26.578125 -0.671875 C 27.367188 -0.910156 27.910156 -1.425781 28.203125 -2.21875 C 28.503906 -3.007812 28.65625 -4.457031 28.65625 -6.5625 L 28.65625 -18.78125 L 8.953125 -18.78125 L 8.953125 -6.5625 C 8.953125 -4.457031 9.097656 -3.007812 9.390625 -2.21875 C 9.679688 -1.425781 10.222656 -0.910156 11.015625 -0.671875 L 11.015625 0 Z M 2.640625 0 "/></g></g></g><g fill="#272727" fill-opacity="1"><g transform="translate(127.304255, 185.883269)"><g><path d="M -0.875 0 L -0.875 -0.671875 C -0.15625 -0.910156 0.546875 -1.382812 1.234375 -2.09375 C 1.929688 -2.800781 2.675781 -4.140625 3.46875 -6.109375 L 13.65625 -31.34375 C 13.96875 -32.164062 13.929688 -32.972656 13.546875 -33.765625 L 13.078125 -34.859375 L 16.96875 -36.609375 L 29.6875 -6.046875 C 30.476562 -4.117188 31.191406 -2.800781 31.828125 -2.09375 C 32.472656 -1.382812 33.066406 -0.910156 33.609375 -0.671875 L 33.609375 0 L 25.59375 0 L 25.59375 -0.671875 C 26.394531 -0.910156 26.722656 -1.382812 26.578125 -2.09375 C 26.441406 -2.800781 25.960938 -4.117188 25.140625 -6.046875 L 21.984375 -13.65625 L 7.390625 -13.65625 L 4.34375 -6.109375 C 3.03125 -2.828125 3.238281 -1.015625 4.96875 -0.671875 L 4.96875 0 Z M 7.703125 -14.421875 L 21.671875 -14.421875 L 14.578125 -31.4375 Z M 7.703125 -14.421875 "/></g></g></g><g fill="#272727" fill-opacity="1"><g transform="translate(163.815509, 185.883269)"><g><path d="M 1.09375 0 L 1.09375 -0.671875 L 21 -35.375 L 12.046875 -35.375 C 9.429688 -35.375 7.429688 -34.898438 6.046875 -33.953125 C 4.671875 -33.003906 3.515625 -31.34375 2.578125 -28.96875 L 2.015625 -28.96875 L 2.84375 -36.203125 L 25.90625 -36.203125 L 25.90625 -35.53125 L 5.84375 -0.828125 L 15.15625 -0.828125 C 17.289062 -0.828125 19.003906 -1.039062 20.296875 -1.46875 C 21.585938 -1.90625 22.640625 -2.628906 23.453125 -3.640625 C 24.265625 -4.660156 25.015625 -6.03125 25.703125 -7.75 L 26.21875 -7.75 L 25.296875 0 Z M 1.09375 0 "/></g></g></g><g fill="#272727" fill-opacity="1"><g transform="translate(194.483001, 185.883269)"><g><path d="M -0.875 0 L -0.875 -0.671875 C -0.15625 -0.910156 0.546875 -1.382812 1.234375 -2.09375 C 1.929688 -2.800781 2.675781 -4.140625 3.46875 -6.109375 L 13.65625 -31.34375 C 13.96875 -32.164062 13.929688 -32.972656 13.546875 -33.765625 L 13.078125 -34.859375 L 16.96875 -36.609375 L 29.6875 -6.046875 C 30.476562 -4.117188 31.191406 -2.800781 31.828125 -2.09375 C 32.472656 -1.382812 33.066406 -0.910156 33.609375 -0.671875 L 33.609375 0 L 25.59375 0 L 25.59375 -0.671875 C 26.394531 -0.910156 26.722656 -1.382812 26.578125 -2.09375 C 26.441406 -2.800781 25.960938 -4.117188 25.140625 -6.046875 L 21.984375 -13.65625 L 7.390625 -13.65625 L 4.34375 -6.109375 C 3.03125 -2.828125 3.238281 -1.015625 4.96875 -0.671875 L 4.96875 0 Z M 7.703125 -14.421875 L 21.671875 -14.421875 L 14.578125 -31.4375 Z M 7.703125 -14.421875 "/></g></g></g><g fill="#272727" fill-opacity="1"><g transform="translate(230.994252, 185.883269)"><g><path d="M 2.640625 0 L 2.640625 -0.671875 C 3.429688 -0.910156 3.972656 -1.425781 4.265625 -2.21875 C 4.554688 -3.007812 4.703125 -4.457031 4.703125 -6.5625 L 4.703125 -29.640625 C 4.703125 -31.773438 4.554688 -33.226562 4.265625 -34 C 3.972656 -34.78125 3.429688 -35.289062 2.640625 -35.53125 L 2.640625 -36.203125 L 26.6875 -36.203125 L 27.25 -29.484375 L 26.6875 -29.328125 C 25.789062 -31.597656 24.539062 -33.179688 22.9375 -34.078125 C 21.332031 -34.972656 19.203125 -35.421875 16.546875 -35.421875 L 8.953125 -35.421875 L 8.953125 -19.75 L 15.5625 -19.75 C 17.53125 -19.75 19.054688 -19.878906 20.140625 -20.140625 C 21.234375 -20.398438 22.023438 -20.796875 22.515625 -21.328125 C 23.015625 -21.867188 23.367188 -22.515625 23.578125 -23.265625 L 24.203125 -23.265625 L 24.203125 -15.46875 L 23.578125 -15.46875 C 23.367188 -16.257812 23.015625 -16.910156 22.515625 -17.421875 C 22.023438 -17.941406 21.234375 -18.332031 20.140625 -18.59375 C 19.054688 -18.851562 17.53125 -18.984375 15.5625 -18.984375 L 8.953125 -18.984375 L 8.953125 -3.109375 C 8.953125 -1.554688 9.726562 -0.78125 11.28125 -0.78125 L 18 -0.78125 C 20.476562 -0.78125 22.523438 -1.207031 24.140625 -2.0625 C 25.765625 -2.925781 27.046875 -4.566406 27.984375 -6.984375 L 28.546875 -6.875 L 28.140625 0 Z M 2.640625 0 "/></g></g></g><g fill="#272727" fill-opacity="1"><g transform="translate(264.816336, 185.883269)"><g><path d="M 2.640625 0 L 2.640625 -0.671875 C 3.429688 -0.910156 3.972656 -1.425781 4.265625 -2.21875 C 4.554688 -3.007812 4.703125 -4.457031 4.703125 -6.5625 L 4.703125 -29.640625 C 4.703125 -31.773438 4.554688 -33.226562 4.265625 -34 C 3.972656 -34.78125 3.429688 -35.289062 2.640625 -35.53125 L 2.640625 -36.203125 L 11.015625 -36.203125 L 11.015625 -35.53125 C 10.222656 -35.289062 9.679688 -34.78125 9.390625 -34 C 9.097656 -33.226562 8.953125 -31.773438 8.953125 -29.640625 L 8.953125 -3.15625 C 8.953125 -1.601562 9.726562 -0.828125 11.28125 -0.828125 L 17.421875 -0.828125 C 19.910156 -0.828125 21.816406 -1.195312 23.140625 -1.9375 C 24.472656 -2.675781 25.585938 -4.015625 26.484375 -5.953125 L 27.046875 -5.84375 L 26.6875 0 Z M 2.640625 0 "/></g></g></g><g fill="#272727" fill-opacity="1"><g transform="translate(296.268329, 185.883269)"><g/></g></g><g fill="#272727" fill-opacity="1"><g transform="translate(69.00553, 207.71083)"><g><path d="M 1 0 L 1 -0.25 C 1.300781 -0.34375 1.507812 -0.539062 1.625 -0.84375 C 1.738281 -1.144531 1.796875 -1.695312 1.796875 -2.5 L 1.796875 -11.296875 C 1.796875 -12.109375 1.738281 -12.660156 1.625 -12.953125 C 1.507812 -13.253906 1.300781 -13.453125 1 -13.546875 L 1 -13.796875 L 10.296875 -13.796875 L 10.46875 -11.734375 L 10.25 -11.671875 C 9.925781 -12.328125 9.519531 -12.789062 9.03125 -13.0625 C 8.539062 -13.34375 7.832031 -13.484375 6.90625 -13.484375 L 3.40625 -13.484375 L 3.40625 -7.703125 L 5.765625 -7.703125 C 6.503906 -7.703125 7.082031 -7.75 7.5 -7.84375 C 7.914062 -7.945312 8.21875 -8.097656 8.40625 -8.296875 C 8.601562 -8.492188 8.738281 -8.738281 8.8125 -9.03125 L 9.046875 -9.03125 L 9.046875 -6.03125 L 8.8125 -6.03125 C 8.738281 -6.332031 8.601562 -6.582031 8.40625 -6.78125 C 8.21875 -6.976562 7.914062 -7.128906 7.5 -7.234375 C 7.082031 -7.335938 6.503906 -7.390625 5.765625 -7.390625 L 3.40625 -7.390625 L 3.40625 -2.5 C 3.40625 -1.695312 3.460938 -1.144531 3.578125 -0.84375 C 3.691406 -0.539062 3.898438 -0.34375 4.203125 -0.25 L 4.203125 0 Z M 1 0 "/></g></g></g><g fill="#272727" fill-opacity="1"><g transform="translate(81.312616, 207.71083)"><g><path d="M 7.125 0.203125 C 6.40625 0.203125 5.710938 0.109375 5.046875 -0.078125 C 4.390625 -0.265625 3.796875 -0.5625 3.265625 -0.96875 C 2.742188 -1.375 2.320312 -1.914062 2 -2.59375 C 1.6875 -3.269531 1.53125 -4.101562 1.53125 -5.09375 L 1.53125 -11.296875 C 1.53125 -12.109375 1.472656 -12.660156 1.359375 -12.953125 C 1.253906 -13.253906 1.050781 -13.453125 0.75 -13.546875 L 0.75 -13.796875 L 3.9375 -13.796875 L 3.9375 -13.546875 C 3.65625 -13.453125 3.453125 -13.253906 3.328125 -12.953125 C 3.210938 -12.660156 3.15625 -12.109375 3.15625 -11.296875 L 3.15625 -5.203125 C 3.15625 -3.984375 3.359375 -3.007812 3.765625 -2.28125 C 4.171875 -1.550781 4.722656 -1.023438 5.421875 -0.703125 C 6.117188 -0.378906 6.894531 -0.21875 7.75 -0.21875 C 8.164062 -0.21875 8.601562 -0.296875 9.0625 -0.453125 C 9.53125 -0.609375 9.960938 -0.875 10.359375 -1.25 C 10.765625 -1.632812 11.09375 -2.148438 11.34375 -2.796875 C 11.59375 -3.441406 11.71875 -4.242188 11.71875 -5.203125 L 11.71875 -10.515625 C 11.71875 -11.265625 11.660156 -11.84375 11.546875 -12.25 C 11.441406 -12.664062 11.289062 -12.960938 11.09375 -13.140625 C 10.90625 -13.328125 10.664062 -13.460938 10.375 -13.546875 L 10.375 -13.796875 L 12.8125 -13.796875 L 12.8125 -13.546875 C 12.53125 -13.453125 12.328125 -13.253906 12.203125 -12.953125 C 12.085938 -12.660156 12.03125 -12.109375 12.03125 -11.296875 L 12.03125 -5.265625 C 12.03125 -3.953125 11.804688 -2.894531 11.359375 -2.09375 C 10.921875 -1.289062 10.332031 -0.707031 9.59375 -0.34375 C 8.863281 0.0195312 8.039062 0.203125 7.125 0.203125 Z M 7.125 0.203125 "/></g></g></g><g fill="#272727" fill-opacity="1"><g transform="translate(95.98642, 207.71083)"><g><path d="M 1 0 L 1 -0.25 C 1.300781 -0.34375 1.507812 -0.539062 1.625 -0.84375 C 1.738281 -1.144531 1.796875 -1.695312 1.796875 -2.5 L 1.796875 -11.296875 C 1.796875 -12.109375 1.738281 -12.660156 1.625 -12.953125 C 1.507812 -13.253906 1.300781 -13.453125 1 -13.546875 L 1 -13.796875 L 4.203125 -13.796875 L 4.203125 -13.546875 C 3.898438 -13.453125 3.691406 -13.253906 3.578125 -12.953125 C 3.460938 -12.660156 3.40625 -12.109375 3.40625 -11.296875 L 3.40625 -1.203125 C 3.40625 -0.609375 3.703125 -0.3125 4.296875 -0.3125 L 6.640625 -0.3125 C 7.585938 -0.3125 8.3125 -0.453125 8.8125 -0.734375 C 9.320312 -1.015625 9.75 -1.523438 10.09375 -2.265625 L 10.3125 -2.234375 L 10.171875 0 Z M 1 0 "/></g></g></g><g fill="#272727" fill-opacity="1"><g transform="translate(107.977947, 207.71083)"><g><path d="M 1 0 L 1 -0.25 C 1.300781 -0.34375 1.507812 -0.539062 1.625 -0.84375 C 1.738281 -1.144531 1.796875 -1.695312 1.796875 -2.5 L 1.796875 -11.296875 C 1.796875 -12.109375 1.738281 -12.660156 1.625 -12.953125 C 1.507812 -13.253906 1.300781 -13.453125 1 -13.546875 L 1 -13.796875 L 4.203125 -13.796875 L 4.203125 -13.546875 C 3.898438 -13.453125 3.691406 -13.253906 3.578125 -12.953125 C 3.460938 -12.660156 3.40625 -12.109375 3.40625 -11.296875 L 3.40625 -1.203125 C 3.40625 -0.609375 3.703125 -0.3125 4.296875 -0.3125 L 6.640625 -0.3125 C 7.585938 -0.3125 8.3125 -0.453125 8.8125 -0.734375 C 9.320312 -1.015625 9.75 -1.523438 10.09375 -2.265625 L 10.3125 -2.234375 L 10.171875 0 Z M 1 0 "/></g></g></g><g fill="#272727" fill-opacity="1"><g transform="translate(119.969472, 207.71083)"><g><path d="M 5.625 0.203125 C 4.582031 0.203125 3.644531 0.0507812 2.8125 -0.25 C 1.988281 -0.550781 1.347656 -0.867188 0.890625 -1.203125 L 0.78125 -3.9375 L 1 -3.984375 C 1.269531 -3.296875 1.617188 -2.660156 2.046875 -2.078125 C 2.472656 -1.492188 3.015625 -1.023438 3.671875 -0.671875 C 4.328125 -0.328125 5.109375 -0.15625 6.015625 -0.15625 C 6.535156 -0.15625 7.019531 -0.265625 7.46875 -0.484375 C 7.914062 -0.703125 8.273438 -1.003906 8.546875 -1.390625 C 8.816406 -1.785156 8.953125 -2.25 8.953125 -2.78125 C 8.953125 -3.28125 8.816406 -3.710938 8.546875 -4.078125 C 8.285156 -4.453125 7.945312 -4.773438 7.53125 -5.046875 C 7.113281 -5.328125 6.671875 -5.566406 6.203125 -5.765625 C 5.734375 -5.972656 5.289062 -6.160156 4.875 -6.328125 C 4.09375 -6.640625 3.414062 -6.957031 2.84375 -7.28125 C 2.269531 -7.601562 1.828125 -7.988281 1.515625 -8.4375 C 1.210938 -8.894531 1.0625 -9.472656 1.0625 -10.171875 C 1.0625 -10.953125 1.257812 -11.617188 1.65625 -12.171875 C 2.0625 -12.734375 2.625 -13.164062 3.34375 -13.46875 C 4.070312 -13.78125 4.914062 -13.9375 5.875 -13.9375 C 6.769531 -13.9375 7.539062 -13.835938 8.1875 -13.640625 C 8.832031 -13.441406 9.34375 -13.238281 9.71875 -13.03125 L 9.796875 -10.75 L 9.609375 -10.6875 C 9.234375 -11.539062 8.691406 -12.242188 7.984375 -12.796875 C 7.285156 -13.347656 6.375 -13.625 5.25 -13.625 C 4.71875 -13.625 4.222656 -13.519531 3.765625 -13.3125 C 3.316406 -13.113281 2.957031 -12.820312 2.6875 -12.4375 C 2.414062 -12.0625 2.28125 -11.585938 2.28125 -11.015625 C 2.28125 -10.554688 2.390625 -10.15625 2.609375 -9.8125 C 2.835938 -9.476562 3.132812 -9.1875 3.5 -8.9375 C 3.875 -8.6875 4.273438 -8.460938 4.703125 -8.265625 C 5.140625 -8.078125 5.570312 -7.898438 6 -7.734375 C 6.726562 -7.441406 7.414062 -7.128906 8.0625 -6.796875 C 8.707031 -6.472656 9.226562 -6.070312 9.625 -5.59375 C 10.03125 -5.125 10.234375 -4.515625 10.234375 -3.765625 C 10.234375 -2.953125 10.007812 -2.242188 9.5625 -1.640625 C 9.113281 -1.046875 8.535156 -0.585938 7.828125 -0.265625 C 7.128906 0.046875 6.394531 0.203125 5.625 0.203125 Z M 5.625 0.203125 "/></g></g></g><g fill="#272727" fill-opacity="1"><g transform="translate(132.118777, 207.71083)"><g><path d="M 3.921875 0 L 3.921875 -0.25 C 4.222656 -0.34375 4.429688 -0.539062 4.546875 -0.84375 C 4.660156 -1.144531 4.71875 -1.695312 4.71875 -2.5 L 4.71875 -13.484375 L 3.75 -13.484375 C 2.863281 -13.484375 2.191406 -13.34375 1.734375 -13.0625 C 1.273438 -12.789062 0.875 -12.300781 0.53125 -11.59375 L 0.3125 -11.640625 L 0.4375 -13.796875 L 10.59375 -13.796875 L 10.703125 -11.640625 L 10.484375 -11.59375 C 10.160156 -12.300781 9.765625 -12.789062 9.296875 -13.0625 C 8.835938 -13.34375 8.164062 -13.484375 7.28125 -13.484375 L 6.34375 -13.484375 L 6.34375 -2.5 C 6.34375 -1.695312 6.398438 -1.144531 6.515625 -0.84375 C 6.628906 -0.539062 6.835938 -0.34375 7.140625 -0.25 L 7.140625 0 Z M 3.921875 0 "/></g></g></g><g fill="#272727" fill-opacity="1"><g transform="translate(144.445591, 207.71083)"><g><path d="M -0.328125 0 L -0.328125 -0.25 C -0.0546875 -0.34375 0.207031 -0.523438 0.46875 -0.796875 C 0.738281 -1.066406 1.023438 -1.578125 1.328125 -2.328125 L 5.203125 -11.953125 C 5.328125 -12.265625 5.316406 -12.570312 5.171875 -12.875 L 4.984375 -13.296875 L 6.46875 -13.953125 L 11.3125 -2.3125 C 11.613281 -1.570312 11.882812 -1.066406 12.125 -0.796875 C 12.375 -0.523438 12.601562 -0.34375 12.8125 -0.25 L 12.8125 0 L 9.765625 0 L 9.765625 -0.25 C 10.066406 -0.34375 10.191406 -0.523438 10.140625 -0.796875 C 10.085938 -1.066406 9.898438 -1.570312 9.578125 -2.3125 L 8.375 -5.203125 L 2.8125 -5.203125 L 1.65625 -2.328125 C 1.15625 -1.078125 1.234375 -0.382812 1.890625 -0.25 L 1.890625 0 Z M 2.9375 -5.5 L 8.265625 -5.5 L 5.5625 -11.984375 Z M 2.9375 -5.5 "/></g></g></g><g fill="#272727" fill-opacity="1"><g transform="translate(158.369931, 207.71083)"><g><path d="M 8.453125 0.203125 C 6.941406 0.203125 5.628906 -0.0664062 4.515625 -0.609375 C 3.410156 -1.148438 2.550781 -1.925781 1.9375 -2.9375 C 1.332031 -3.957031 1.03125 -5.1875 1.03125 -6.625 C 1.03125 -7.675781 1.21875 -8.644531 1.59375 -9.53125 C 1.976562 -10.414062 2.519531 -11.191406 3.21875 -11.859375 C 3.925781 -12.523438 4.757812 -13.035156 5.71875 -13.390625 C 6.6875 -13.753906 7.75 -13.9375 8.90625 -13.9375 C 9.476562 -13.9375 10.054688 -13.882812 10.640625 -13.78125 C 11.222656 -13.6875 11.753906 -13.566406 12.234375 -13.421875 C 12.722656 -13.285156 13.09375 -13.128906 13.34375 -12.953125 L 13.421875 -10.609375 L 13.234375 -10.5625 C 12.847656 -11.457031 12.210938 -12.179688 11.328125 -12.734375 C 10.441406 -13.285156 9.414062 -13.5625 8.25 -13.5625 C 7.207031 -13.5625 6.265625 -13.332031 5.421875 -12.875 C 4.578125 -12.414062 3.910156 -11.734375 3.421875 -10.828125 C 2.929688 -9.921875 2.6875 -8.796875 2.6875 -7.453125 C 2.6875 -6.535156 2.816406 -5.640625 3.078125 -4.765625 C 3.347656 -3.898438 3.753906 -3.125 4.296875 -2.4375 C 4.835938 -1.75 5.5 -1.203125 6.28125 -0.796875 C 7.070312 -0.398438 7.984375 -0.203125 9.015625 -0.203125 C 10.078125 -0.203125 11.003906 -0.476562 11.796875 -1.03125 C 12.597656 -1.582031 13.1875 -2.390625 13.5625 -3.453125 L 13.78125 -3.4375 L 13.46875 -0.875 C 13.007812 -0.625 12.332031 -0.378906 11.4375 -0.140625 C 10.550781 0.0859375 9.554688 0.203125 8.453125 0.203125 Z M 8.453125 0.203125 "/></g></g></g><g fill="#272727" fill-opacity="1"><g transform="translate(174.26654, 207.71083)"><g><path d="M 1 0 L 1 -0.25 C 1.300781 -0.34375 1.507812 -0.539062 1.625 -0.84375 C 1.738281 -1.144531 1.796875 -1.695312 1.796875 -2.5 L 1.796875 -11.296875 C 1.796875 -12.109375 1.738281 -12.660156 1.625 -12.953125 C 1.507812 -13.253906 1.300781 -13.453125 1 -13.546875 L 1 -13.796875 L 4.203125 -13.796875 L 4.203125 -13.546875 C 3.898438 -13.453125 3.691406 -13.253906 3.578125 -12.953125 C 3.460938 -12.660156 3.40625 -12.109375 3.40625 -11.296875 L 3.40625 -6.296875 L 8.578125 -11.578125 C 9.191406 -12.222656 9.546875 -12.710938 9.640625 -13.046875 C 9.742188 -13.378906 9.609375 -13.570312 9.234375 -13.625 L 9.234375 -13.796875 L 11.96875 -13.796875 L 11.96875 -13.546875 C 11.65625 -13.453125 11.285156 -13.316406 10.859375 -13.140625 C 10.441406 -12.960938 9.953125 -12.585938 9.390625 -12.015625 L 5.1875 -7.703125 L 5.640625 -7.734375 C 6.378906 -7.785156 6.976562 -7.75 7.4375 -7.625 C 7.90625 -7.5 8.296875 -7.269531 8.609375 -6.9375 C 8.921875 -6.613281 9.207031 -6.164062 9.46875 -5.59375 C 9.738281 -5.03125 10.039062 -4.328125 10.375 -3.484375 C 10.71875 -2.648438 11 -2 11.21875 -1.53125 C 11.445312 -1.0625 11.65625 -0.734375 11.84375 -0.546875 C 12.03125 -0.367188 12.226562 -0.28125 12.4375 -0.28125 C 12.507812 -0.28125 12.570312 -0.28125 12.625 -0.28125 C 12.675781 -0.28125 12.726562 -0.285156 12.78125 -0.296875 L 12.78125 -0.046875 C 12.601562 0.015625 12.410156 0.0507812 12.203125 0.0625 C 12.003906 0.0820312 11.800781 0.09375 11.59375 0.09375 C 11.125 0.09375 10.742188 -0.00390625 10.453125 -0.203125 C 10.160156 -0.410156 9.898438 -0.742188 9.671875 -1.203125 C 9.441406 -1.671875 9.171875 -2.289062 8.859375 -3.0625 C 8.523438 -3.863281 8.242188 -4.539062 8.015625 -5.09375 C 7.785156 -5.65625 7.550781 -6.101562 7.3125 -6.4375 C 7.070312 -6.78125 6.796875 -7.03125 6.484375 -7.1875 C 6.171875 -7.34375 5.765625 -7.410156 5.265625 -7.390625 L 4.875 -7.390625 L 3.40625 -5.890625 L 3.40625 -2.5 C 3.40625 -1.695312 3.460938 -1.144531 3.578125 -0.84375 C 3.691406 -0.539062 3.898438 -0.34375 4.203125 -0.25 L 4.203125 0 Z M 1 0 "/></g></g></g><g fill="#272727" fill-opacity="1"><g transform="translate(188.171168, 207.71083)"><g/></g></g><g fill="#272727" fill-opacity="1"><g transform="translate(193.59506, 207.71083)"><g><path d="M 1 0 L 1 -0.25 C 1.300781 -0.34375 1.507812 -0.539062 1.625 -0.84375 C 1.738281 -1.144531 1.796875 -1.695312 1.796875 -2.5 L 1.796875 -11.296875 C 1.796875 -12.109375 1.738281 -12.660156 1.625 -12.953125 C 1.507812 -13.253906 1.300781 -13.453125 1 -13.546875 L 1 -13.796875 L 5.71875 -13.796875 C 7.070312 -13.796875 8.226562 -13.601562 9.1875 -13.21875 C 10.144531 -12.832031 10.925781 -12.316406 11.53125 -11.671875 C 12.132812 -11.023438 12.578125 -10.3125 12.859375 -9.53125 C 13.148438 -8.75 13.296875 -7.957031 13.296875 -7.15625 C 13.304688 -5.78125 13.019531 -4.550781 12.4375 -3.46875 C 11.851562 -2.394531 11.023438 -1.546875 9.953125 -0.921875 C 8.878906 -0.304688 7.617188 0 6.171875 0 Z M 3.40625 -1.734375 C 3.40625 -1.273438 3.484375 -0.921875 3.640625 -0.671875 C 3.804688 -0.421875 4.15625 -0.296875 4.6875 -0.296875 L 6.125 -0.296875 C 7.851562 -0.296875 9.179688 -0.789062 10.109375 -1.78125 C 11.035156 -2.769531 11.5 -4.300781 11.5 -6.375 C 11.5 -7.6875 11.238281 -8.878906 10.71875 -9.953125 C 10.207031 -11.035156 9.453125 -11.894531 8.453125 -12.53125 C 7.453125 -13.175781 6.21875 -13.5 4.75 -13.5 L 3.40625 -13.5 Z M 3.40625 -1.734375 "/></g></g></g><g fill="#272727" fill-opacity="1"><g transform="translate(209.17611, 207.71083)"><g><path d="M 1 0 L 1 -0.25 C 1.300781 -0.34375 1.507812 -0.539062 1.625 -0.84375 C 1.738281 -1.144531 1.796875 -1.695312 1.796875 -2.5 L 1.796875 -11.296875 C 1.796875 -12.109375 1.738281 -12.660156 1.625 -12.953125 C 1.507812 -13.253906 1.300781 -13.453125 1 -13.546875 L 1 -13.796875 L 10.171875 -13.796875 L 10.390625 -11.234375 L 10.171875 -11.1875 C 9.828125 -12.050781 9.347656 -12.648438 8.734375 -12.984375 C 8.128906 -13.328125 7.320312 -13.5 6.3125 -13.5 L 3.40625 -13.5 L 3.40625 -7.53125 L 5.9375 -7.53125 C 6.6875 -7.53125 7.265625 -7.578125 7.671875 -7.671875 C 8.085938 -7.773438 8.390625 -7.925781 8.578125 -8.125 C 8.773438 -8.332031 8.910156 -8.582031 8.984375 -8.875 L 9.234375 -8.875 L 9.234375 -5.890625 L 8.984375 -5.890625 C 8.910156 -6.191406 8.773438 -6.441406 8.578125 -6.640625 C 8.390625 -6.835938 8.085938 -6.984375 7.671875 -7.078125 C 7.265625 -7.179688 6.6875 -7.234375 5.9375 -7.234375 L 3.40625 -7.234375 L 3.40625 -1.1875 C 3.40625 -0.59375 3.703125 -0.296875 4.296875 -0.296875 L 6.859375 -0.296875 C 7.804688 -0.296875 8.585938 -0.457031 9.203125 -0.78125 C 9.828125 -1.113281 10.316406 -1.738281 10.671875 -2.65625 L 10.890625 -2.625 L 10.734375 0 Z M 1 0 "/></g></g></g><g fill="#272727" fill-opacity="1"><g transform="translate(222.074882, 207.71083)"><g><path d="M 1.40625 -11.46875 C 1.113281 -12.21875 0.84375 -12.726562 0.59375 -13 C 0.351562 -13.269531 0.128906 -13.453125 -0.078125 -13.546875 L -0.078125 -13.796875 L 3 -13.796875 L 3 -13.546875 C 2.707031 -13.453125 2.582031 -13.269531 2.625 -13 C 2.675781 -12.726562 2.847656 -12.21875 3.140625 -11.46875 L 6.9375 -1.71875 L 10.6875 -11.453125 C 10.9375 -12.109375 11.039062 -12.601562 11 -12.9375 C 10.957031 -13.28125 10.769531 -13.484375 10.4375 -13.546875 L 10.4375 -13.796875 L 12.640625 -13.796875 L 12.640625 -13.546875 C 12.378906 -13.453125 12.117188 -13.269531 11.859375 -13 C 11.597656 -12.726562 11.328125 -12.21875 11.046875 -11.46875 L 6.5625 0.09375 L 6.015625 0.09375 Z M 1.40625 -11.46875 "/></g></g></g><g fill="#272727" fill-opacity="1"><g transform="translate(235.900614, 207.71083)"><g><path d="M 1 0 L 1 -0.25 C 1.300781 -0.34375 1.507812 -0.539062 1.625 -0.84375 C 1.738281 -1.144531 1.796875 -1.695312 1.796875 -2.5 L 1.796875 -11.296875 C 1.796875 -12.109375 1.738281 -12.660156 1.625 -12.953125 C 1.507812 -13.253906 1.300781 -13.453125 1 -13.546875 L 1 -13.796875 L 10.171875 -13.796875 L 10.390625 -11.234375 L 10.171875 -11.1875 C 9.828125 -12.050781 9.347656 -12.648438 8.734375 -12.984375 C 8.128906 -13.328125 7.320312 -13.5 6.3125 -13.5 L 3.40625 -13.5 L 3.40625 -7.53125 L 5.9375 -7.53125 C 6.6875 -7.53125 7.265625 -7.578125 7.671875 -7.671875 C 8.085938 -7.773438 8.390625 -7.925781 8.578125 -8.125 C 8.773438 -8.332031 8.910156 -8.582031 8.984375 -8.875 L 9.234375 -8.875 L 9.234375 -5.890625 L 8.984375 -5.890625 C 8.910156 -6.191406 8.773438 -6.441406 8.578125 -6.640625 C 8.390625 -6.835938 8.085938 -6.984375 7.671875 -7.078125 C 7.265625 -7.179688 6.6875 -7.234375 5.9375 -7.234375 L 3.40625 -7.234375 L 3.40625 -1.1875 C 3.40625 -0.59375 3.703125 -0.296875 4.296875 -0.296875 L 6.859375 -0.296875 C 7.804688 -0.296875 8.585938 -0.457031 9.203125 -0.78125 C 9.828125 -1.113281 10.316406 -1.738281 10.671875 -2.65625 L 10.890625 -2.625 L 10.734375 0 Z M 1 0 "/></g></g></g><g fill="#272727" fill-opacity="1"><g transform="translate(248.799386, 207.71083)"><g><path d="M 1 0 L 1 -0.25 C 1.300781 -0.34375 1.507812 -0.539062 1.625 -0.84375 C 1.738281 -1.144531 1.796875 -1.695312 1.796875 -2.5 L 1.796875 -11.296875 C 1.796875 -12.109375 1.738281 -12.660156 1.625 -12.953125 C 1.507812 -13.253906 1.300781 -13.453125 1 -13.546875 L 1 -13.796875 L 4.203125 -13.796875 L 4.203125 -13.546875 C 3.898438 -13.453125 3.691406 -13.253906 3.578125 -12.953125 C 3.460938 -12.660156 3.40625 -12.109375 3.40625 -11.296875 L 3.40625 -1.203125 C 3.40625 -0.609375 3.703125 -0.3125 4.296875 -0.3125 L 6.640625 -0.3125 C 7.585938 -0.3125 8.3125 -0.453125 8.8125 -0.734375 C 9.320312 -1.015625 9.75 -1.523438 10.09375 -2.265625 L 10.3125 -2.234375 L 10.171875 0 Z M 1 0 "/></g></g></g><g fill="#272727" fill-opacity="1"><g transform="translate(260.790917, 207.71083)"><g><path d="M 8.046875 0.203125 C 7.203125 0.203125 6.363281 0.0625 5.53125 -0.21875 C 4.707031 -0.507812 3.953125 -0.945312 3.265625 -1.53125 C 2.585938 -2.113281 2.046875 -2.851562 1.640625 -3.75 C 1.234375 -4.644531 1.03125 -5.703125 1.03125 -6.921875 C 1.03125 -8.273438 1.320312 -9.476562 1.90625 -10.53125 C 2.5 -11.59375 3.320312 -12.425781 4.375 -13.03125 C 5.425781 -13.644531 6.648438 -13.953125 8.046875 -13.953125 C 8.867188 -13.953125 9.691406 -13.804688 10.515625 -13.515625 C 11.347656 -13.234375 12.101562 -12.800781 12.78125 -12.21875 C 13.457031 -11.632812 14 -10.894531 14.40625 -10 C 14.820312 -9.101562 15.03125 -8.050781 15.03125 -6.84375 C 15.03125 -5.625 14.820312 -4.570312 14.40625 -3.6875 C 14 -2.800781 13.453125 -2.066406 12.765625 -1.484375 C 12.085938 -0.910156 11.335938 -0.484375 10.515625 -0.203125 C 9.691406 0.0664062 8.867188 0.203125 8.046875 0.203125 Z M 2.609375 -8.0625 C 2.640625 -7.082031 2.816406 -6.128906 3.140625 -5.203125 C 3.460938 -4.273438 3.898438 -3.441406 4.453125 -2.703125 C 5.015625 -1.960938 5.671875 -1.375 6.421875 -0.9375 C 7.171875 -0.507812 7.988281 -0.296875 8.875 -0.296875 C 9.925781 -0.296875 10.800781 -0.523438 11.5 -0.984375 C 12.195312 -1.441406 12.710938 -2.066406 13.046875 -2.859375 C 13.378906 -3.660156 13.523438 -4.554688 13.484375 -5.546875 C 13.441406 -6.566406 13.257812 -7.550781 12.9375 -8.5 C 12.625 -9.457031 12.191406 -10.3125 11.640625 -11.0625 C 11.085938 -11.8125 10.4375 -12.40625 9.6875 -12.84375 C 8.9375 -13.28125 8.117188 -13.5 7.234375 -13.5 C 6.234375 -13.5 5.378906 -13.269531 4.671875 -12.8125 C 3.972656 -12.351562 3.441406 -11.71875 3.078125 -10.90625 C 2.722656 -10.09375 2.566406 -9.144531 2.609375 -8.0625 Z M 2.609375 -8.0625 "/></g></g></g><g fill="#272727" fill-opacity="1"><g transform="translate(278.107566, 207.71083)"><g><path d="M 1 0 L 1 -0.25 C 1.300781 -0.34375 1.507812 -0.539062 1.625 -0.84375 C 1.738281 -1.144531 1.796875 -1.695312 1.796875 -2.5 L 1.796875 -11.296875 C 1.796875 -12.109375 1.738281 -12.660156 1.625 -12.953125 C 1.507812 -13.253906 1.300781 -13.453125 1 -13.546875 L 1 -13.796875 L 5.015625 -13.796875 C 6.378906 -13.796875 7.453125 -13.601562 8.234375 -13.21875 C 9.015625 -12.84375 9.566406 -12.359375 9.890625 -11.765625 C 10.222656 -11.179688 10.390625 -10.566406 10.390625 -9.921875 C 10.390625 -8.609375 9.921875 -7.535156 8.984375 -6.703125 C 8.046875 -5.878906 6.65625 -5.46875 4.8125 -5.46875 L 3.40625 -5.46875 L 3.40625 -2.5 C 3.40625 -1.695312 3.460938 -1.144531 3.578125 -0.84375 C 3.691406 -0.539062 3.898438 -0.34375 4.203125 -0.25 L 4.203125 0 Z M 3.40625 -5.765625 L 4.765625 -5.765625 C 6.035156 -5.765625 7 -6.09375 7.65625 -6.75 C 8.320312 -7.40625 8.65625 -8.3125 8.65625 -9.46875 C 8.65625 -10.175781 8.503906 -10.832031 8.203125 -11.4375 C 7.910156 -12.050781 7.441406 -12.546875 6.796875 -12.921875 C 6.160156 -13.304688 5.304688 -13.5 4.234375 -13.5 C 4.109375 -13.5 3.96875 -13.492188 3.8125 -13.484375 C 3.664062 -13.484375 3.53125 -13.476562 3.40625 -13.46875 Z M 3.40625 -5.765625 "/></g></g></g><g fill="#272727" fill-opacity="1"><g transform="translate(290.276594, 207.71083)"><g><path d="M 1 0 L 1 -0.25 C 1.300781 -0.34375 1.507812 -0.539062 1.625 -0.84375 C 1.738281 -1.144531 1.796875 -1.695312 1.796875 -2.5 L 1.796875 -11.296875 C 1.796875 -12.109375 1.738281 -12.660156 1.625 -12.953125 C 1.507812 -13.253906 1.300781 -13.453125 1 -13.546875 L 1 -13.796875 L 10.171875 -13.796875 L 10.390625 -11.234375 L 10.171875 -11.1875 C 9.828125 -12.050781 9.347656 -12.648438 8.734375 -12.984375 C 8.128906 -13.328125 7.320312 -13.5 6.3125 -13.5 L 3.40625 -13.5 L 3.40625 -7.53125 L 5.9375 -7.53125 C 6.6875 -7.53125 7.265625 -7.578125 7.671875 -7.671875 C 8.085938 -7.773438 8.390625 -7.925781 8.578125 -8.125 C 8.773438 -8.332031 8.910156 -8.582031 8.984375 -8.875 L 9.234375 -8.875 L 9.234375 -5.890625 L 8.984375 -5.890625 C 8.910156 -6.191406 8.773438 -6.441406 8.578125 -6.640625 C 8.390625 -6.835938 8.085938 -6.984375 7.671875 -7.078125 C 7.265625 -7.179688 6.6875 -7.234375 5.9375 -7.234375 L 3.40625 -7.234375 L 3.40625 -1.1875 C 3.40625 -0.59375 3.703125 -0.296875 4.296875 -0.296875 L 6.859375 -0.296875 C 7.804688 -0.296875 8.585938 -0.457031 9.203125 -0.78125 C 9.828125 -1.113281 10.316406 -1.738281 10.671875 -2.65625 L 10.890625 -2.625 L 10.734375 0 Z M 1 0 "/></g></g></g><g fill="#272727" fill-opacity="1"><g transform="translate(303.175367, 207.71083)"><g><path d="M 11.046875 0.140625 C 10.546875 0.140625 10.148438 0.0195312 9.859375 -0.21875 C 9.566406 -0.46875 9.3125 -0.820312 9.09375 -1.28125 C 8.882812 -1.75 8.632812 -2.328125 8.34375 -3.015625 C 8.050781 -3.703125 7.804688 -4.300781 7.609375 -4.8125 C 7.410156 -5.320312 7.195312 -5.75 6.96875 -6.09375 C 6.738281 -6.4375 6.445312 -6.691406 6.09375 -6.859375 C 5.738281 -7.035156 5.265625 -7.125 4.671875 -7.125 L 3.40625 -7.125 L 3.40625 -2.5 C 3.40625 -1.695312 3.460938 -1.144531 3.578125 -0.84375 C 3.691406 -0.539062 3.898438 -0.34375 4.203125 -0.25 L 4.203125 0 L 1 0 L 1 -0.25 C 1.300781 -0.34375 1.507812 -0.539062 1.625 -0.84375 C 1.738281 -1.144531 1.796875 -1.695312 1.796875 -2.5 L 1.796875 -11.296875 C 1.796875 -12.109375 1.738281 -12.660156 1.625 -12.953125 C 1.507812 -13.253906 1.300781 -13.453125 1 -13.546875 L 1 -13.796875 L 4.890625 -13.796875 C 6.234375 -13.796875 7.28125 -13.660156 8.03125 -13.390625 C 8.78125 -13.128906 9.304688 -12.765625 9.609375 -12.296875 C 9.921875 -11.835938 10.078125 -11.316406 10.078125 -10.734375 C 10.078125 -9.804688 9.75 -9.015625 9.09375 -8.359375 C 8.4375 -7.710938 7.460938 -7.316406 6.171875 -7.171875 C 6.773438 -7.097656 7.265625 -6.960938 7.640625 -6.765625 C 8.023438 -6.578125 8.34375 -6.320312 8.59375 -6 C 8.84375 -5.675781 9.066406 -5.285156 9.265625 -4.828125 C 9.460938 -4.367188 9.679688 -3.835938 9.921875 -3.234375 C 10.234375 -2.441406 10.5 -1.828125 10.71875 -1.390625 C 10.9375 -0.960938 11.132812 -0.660156 11.3125 -0.484375 C 11.5 -0.304688 11.707031 -0.21875 11.9375 -0.21875 C 12 -0.21875 12.050781 -0.21875 12.09375 -0.21875 C 12.144531 -0.21875 12.195312 -0.222656 12.25 -0.234375 L 12.25 0 C 12.101562 0.0507812 11.914062 0.0859375 11.6875 0.109375 C 11.457031 0.128906 11.242188 0.140625 11.046875 0.140625 Z M 3.40625 -7.421875 L 5.0625 -7.421875 C 6.195312 -7.421875 7.035156 -7.6875 7.578125 -8.21875 C 8.128906 -8.75 8.40625 -9.429688 8.40625 -10.265625 C 8.40625 -10.859375 8.269531 -11.398438 8 -11.890625 C 7.726562 -12.378906 7.289062 -12.769531 6.6875 -13.0625 C 6.09375 -13.351562 5.3125 -13.5 4.34375 -13.5 C 4.195312 -13.5 4.039062 -13.492188 3.875 -13.484375 C 3.71875 -13.484375 3.5625 -13.476562 3.40625 -13.46875 Z M 3.40625 -7.421875 "/></g></g></g></svg>