<?xml version="1.0" encoding="UTF-8" standalone="no"?>
<svg
   xmlns:dc="http://purl.org/dc/elements/1.1/"
   xmlns:cc="http://creativecommons.org/ns#"
   xmlns:rdf="http://www.w3.org/1999/02/22-rdf-syntax-ns#"
   xmlns:svg="http://www.w3.org/2000/svg"
   xmlns="http://www.w3.org/2000/svg"
   xmlns:sodipodi="http://sodipodi.sourceforge.net/DTD/sodipodi-0.dtd"
   xmlns:inkscape="http://www.inkscape.org/namespaces/inkscape"
   id="generated_logo_1"
   viewBox="0 0 252.83421 176.25"
   version="1.1"
   sodipodi:docname="logo_transparent.svg"
   width="252.83421"
   height="176.25">
  <metadata
     id="metadata37">
    <rdf:RDF>
      <cc:Work
         rdf:about="">
        <dc:format>image/svg+xml</dc:format>
        <dc:type
           rdf:resource="http://purl.org/dc/dcmitype/StillImage" />
      </cc:Work>
    </rdf:RDF>
  </metadata>
  <defs
     id="defs35" />
  <sodipodi:namedview
     pagecolor="#ECE2D0"
     bordercolor="#666666"
     borderopacity="1"
     objecttolerance="10"
     gridtolerance="10"
     guidetolerance="10"
     inkscape:pageopacity="0"
     inkscape:pageshadow="2"
     inkscape:window-width="640"
     inkscape:window-height="480"
     id="namedview33" />
  <style
     type="text/css"
     class="styleimportlogofontmain"
     id="style2">@import url(&quot;https://fonts.googleapis.com/css2?family=Abril Fatface:wght@400&quot;);#generated_logo_1 .maintypo { font-family: Abril Fatface; font-weight: 400; }</style>
  <style
     type="text/css"
     class="styleimportlogofontsub"
     id="style4">@import url(&quot;https://fonts.googleapis.com/css2?family=Raleway:wght@300;400;500;700;900&quot;);#generated_logo_1 .subtypo { font-family: Raleway; font-weight: 400; }</style>
  <style
     type="text/css"
     class="styleimportlogopos"
     id="style6" />
  <g
     id="logo-elements"
     transform="translate(-13.785781,76.25)"
     transform-box="stroke-box">
    <g
       id="iconcontainer"
       transform="translate(140,50)"
       transform-origin="center"
       transform-box="fill-box">
      <g
         class="iconBGGrpM"
         id="g10">
        <g
           class="iconBGGrp"
           transform="matrix(0.1,0,0,0.1,-50,-50)"
           id="g8" />
      </g>
      <g
         class="iconGrpM"
         id="g19">
        <g
           class="iconGrp"
           transform="matrix(0.1,0,0,0.1,-50,-50)"
           id="g17">
          <g
             class="lg_icon"
             id="lg_icon_60"
             stroke="none"
             stroke-width="1"
             fill="none"
             fill-rule="evenodd">
            <g
               id="0060">
              <path
                 id="FRAME"
                 style="fill:none"
                 d="M 0,0 V 1000 H 1000 V 0 Z" />
              <g
                 id="Icon"
                 transform="translate(100,419)"
                 fill="#ECE2D0">
                <path
                   d="m 400,59.408 c 167.896,0 315.453,69.292 400,102.151 C 772.446,103.83 603.876,0 400,0 196.124,0 27.554,103.83 0,161.559 84.546,128.7 232.104,59.408 400,59.408"
                   id="Fill-1" />
              </g>
            </g>
          </g>
        </g>
      </g>
    </g>
    <g
       id="textlines"
       transform="translate(65,-45)">
      <g
         id="einsg">
        <g
           aria-label="Hazael Montiel"
           id="eins"
           style="text-anchor:middle;text-rendering:geometricPrecision">
          <path
             d="m -51.214219,-29.5 h 10.92 v 0.665 h -2.03 v 10.85 h 6.965 v -10.85 h -2.065 V -29.5 h 10.955 v 0.665 h -2.065 v 23.17 h 2.065 V -5 h -10.955 v -0.665 h 2.065 v -11.41 h -6.965 v 11.41 h 2.03 V -5 h -10.92 v -0.665 h 2.065 v -23.17 h -2.065 z"
             style="font-weight:400;font-size:35px;font-family:'Abril Fatface';letter-spacing:1;fill:#ECE2D0"
             id="path40" />
          <path
             d="m -16.017578,-13.225 h 1.015 v -2.695 q 0,-3.325 -0.385,-4.445 -0.35,-1.155 -1.4,-1.155 -0.63,0 -1.155,0.35 -0.49,0.315 -0.49,0.91 0,0.56 0.21,1.155 h 0.875 q 0.28,0.735 0.28,1.785 0,1.015 -0.875,1.785 -0.875,0.735 -2.205,0.735 -3.01,0 -3.01,-2.905 0,-4.305 7.315,-4.305 4.165,0 5.74,1.435 1.6099999,1.4 1.6099999,5.18 v 7.105 q 0,1.82 1.015,1.82 1.19,0 1.4,-3.605 l 0.525,0.035 q -0.14,3.08 -1.155,4.235 -1.015,1.155 -3.3249999,1.155 -4.2,0 -4.83,-2.59 -0.455,1.33 -1.365,1.96 -0.91,0.63 -2.66,0.63 -5.18,0 -5.18,-4.235 0,-2.485 1.96,-3.395 1.995,-0.945 6.09,-0.945 z m -1.4,4.305 q 0,1.82 0.175,2.345 0.21,0.525 0.735,0.525 0.56,0 1.015,-0.875 0.49,-0.91 0.49,-2.485 v -3.255 h -0.245 q -2.17,0 -2.17,3.185 z"
             style="font-weight:400;font-size:35px;font-family:'Abril Fatface';letter-spacing:1;fill:#ECE2D0"
             id="path42" />
          <path
             d="m 11.724609,-21.66 v 0.63 l -8.2949996,15.4 h 0.455 q 2.94,0 4.62,-1.54 1.6799996,-1.54 2.6249996,-5.005 h 0.49 l -0.56,7.175 H -3.6403906 v -0.525 l 8.435,-15.505 h -0.385 q -3.53500002,0 -4.93500002,1.155 -1.36499998,1.155 -2.44999998,4.935 h -0.455 l 0.455,-6.72 z"
             style="font-weight:400;font-size:35px;font-family:'Abril Fatface';letter-spacing:1;fill:#ECE2D0"
             id="path44" />
          <path
             d="m 22.349609,-13.225 h 1.015 v -2.695 q 0,-3.325 -0.385,-4.445 -0.35,-1.155 -1.4,-1.155 -0.63,0 -1.155,0.35 -0.49,0.315 -0.49,0.91 0,0.56 0.21,1.155 h 0.875 q 0.28,0.735 0.28,1.785 0,1.015 -0.875,1.785 -0.875,0.735 -2.205,0.735 -3.01,0 -3.01,-2.905 0,-4.305 7.315,-4.305 4.165,0 5.74,1.435 1.61,1.4 1.61,5.18 v 7.105 q 0,1.82 1.015,1.82 1.19,0 1.4,-3.605 l 0.525,0.035 q -0.14,3.08 -1.155,4.235 -1.015,1.155 -3.325,1.155 -4.2,0 -4.83,-2.59 -0.455,1.33 -1.365,1.96 -0.91,0.63 -2.66,0.63 -5.18,0 -5.18,-4.235 0,-2.485 1.96,-3.395 1.995,-0.945 6.09,-0.945 z m -1.4,4.305 q 0,1.82 0.175,2.345 0.21,0.525 0.735,0.525 0.56,0 1.015,-0.875 0.49,-0.91 0.49,-2.485 v -3.255 h -0.245 q -2.17,0 -2.17,3.185 z"
             style="font-weight:400;font-size:35px;font-family:'Abril Fatface';letter-spacing:1;fill:#ECE2D0"
             id="path46" />
          <path
             d="m 43.363594,-4.65 q -4.515,0 -6.79,-2.31 -2.24,-2.345 -2.24,-6.475 0,-4.165 2.52,-6.37 2.555,-2.205 6.475,-2.205 7.945,0 7.63,7.98 h -9.87 v 1.365 q 0,3.43 0.875,5.18 0.875,1.75 3.045,1.75 4.06,0 5.32,-4.34 l 0.63,0.105 q -0.665,2.52 -2.415,3.92 -1.715,1.4 -5.18,1.4 z m -2.24,-10.08 h 3.605 v -1.715 q 0,-2.835 -0.35,-3.85 -0.315,-1.05 -1.33,-1.05 -0.98,0 -1.47,1.12 -0.455,1.085 -0.455,3.78 z"
             style="font-weight:400;font-size:35px;font-family:'Abril Fatface';letter-spacing:1;fill:#ECE2D0"
             id="path48" />
          <path
             d="m 53.065469,-31.25 h 8.575 v 25.62 h 1.96 V -5 h -10.395 v -0.63 h 1.925 v -24.99 h -2.065 z"
             style="font-weight:400;font-size:35px;font-family:'Abril Fatface';letter-spacing:1;fill:#ECE2D0"
             id="path50" />
          <path
             d="m 91.39875,-29.5 h 9.345 v 0.665 h -1.925 v 23.17 h 1.925 V -5 h -10.675 v -0.665 h 1.925 V -27.54 h -0.14 l -5.25,22.54 h -4.375 l -6.16,-22.645 h -0.14 v 21.98 h 1.925 V -5 h -4.76 v -0.665 h 1.925 v -23.17 h -1.925 V -29.5 h 9.45 l 4.655,18.025 z"
             style="font-weight:400;font-size:35px;font-family:'Abril Fatface';letter-spacing:1;fill:#ECE2D0"
             id="path52" />
          <path
             d="m 114.26828,-11.895 v -2.975 q 0,-3.395 -0.385,-4.935 -0.35,-1.575 -1.68,-1.575 -0.77,0 -1.26,0.455 -0.455,0.42 -0.665,1.435 -0.315,1.575 -0.315,4.795 v 2.73 q 0,3.815 0.21,4.585 0.245,0.77 0.49,1.26 0.385,0.84 1.505,0.84 1.365,0 1.785,-1.575 0.315,-1.12 0.315,-5.04 z m -2.17,7.245 q -4.375,0 -6.615,-2.24 -2.24,-2.24 -2.24,-6.405 0,-4.2 2.38,-6.44 2.415,-2.275 6.755,-2.275 4.34,0 6.475,2.1 2.135,2.065 2.135,6.335 0,8.925 -8.89,8.925 z"
             style="font-weight:400;font-size:35px;font-family:'Abril Fatface';letter-spacing:1;fill:#ECE2D0"
             id="path54" />
          <path
             d="m 123.03719,-21.66 h 8.435 v 3.22 q 0.56,-1.61 1.715,-2.59 1.155,-0.98 3.5,-0.98 5.425,0 5.425,5.845 V -5.63 h 1.96 V -5 h -9.905 v -0.63 h 1.435 v -11.375 q 0,-2.1 -0.28,-2.695 -0.28,-0.63 -1.015,-0.63 -1.12,0 -1.995,1.47 -0.84,1.47 -0.84,3.57 v 9.66 h 1.505 V -5 h -9.94 v -0.63 h 1.925 v -15.4 h -1.925 z"
             style="font-weight:400;font-size:35px;font-family:'Abril Fatface';letter-spacing:1;fill:#ECE2D0"
             id="path56" />
          <path
             d="M 147.04531,-10.005 V -21.03 h -1.925 v -0.63 h 1.925 v -4.515 l 6.51,-1.61 v 6.125 h 4.55 v 0.63 h -4.55 v 11.795 q 0,1.645 0.315,2.415 0.35,0.77 1.4,0.77 1.05,0 1.82,-1.05 0.805,-1.05 1.05,-2.87 l 0.595,0.07 q -0.28,2.415 -1.54,3.85 -1.26,1.4 -4.165,1.4 -2.905,0 -4.445,-1.155 -1.54,-1.155 -1.54,-4.2 z"
             style="font-weight:400;font-size:35px;font-family:'Abril Fatface';letter-spacing:1;fill:#ECE2D0"
             id="path58" />
          <path
             d="m 165.24891,-24.075 q -1.855,0 -2.66,-0.945 -0.77,-0.945 -0.77,-2.345 0,-1.4 0.84,-2.31 0.875,-0.91 2.625,-0.91 1.75,0 2.66,0.84 0.91,0.805 0.91,2.345 0,1.505 -0.875,2.415 -0.875,0.91 -2.73,0.91 z m -5.285,2.415 h 8.575 v 16.03 h 1.96 V -5 h -10.395 v -0.63 h 1.925 v -15.4 h -2.065 z"
             style="font-weight:400;font-size:35px;font-family:'Abril Fatface';letter-spacing:1;fill:#ECE2D0"
             id="path60" />
          <path
             d="m 181.38312,-4.65 q -4.515,0 -6.79,-2.31 -2.24,-2.345 -2.24,-6.475 0,-4.165 2.52,-6.37 2.555,-2.205 6.475,-2.205 7.945,0 7.63,7.98 h -9.87 v 1.365 q 0,3.43 0.875,5.18 0.875,1.75 3.045,1.75 4.06,0 5.32,-4.34 l 0.63,0.105 q -0.66499,2.52 -2.41499,3.92 -1.71501,1.4 -5.18001,1.4 z m -2.24,-10.08 h 3.605 v -1.715 q 0,-2.835 -0.35,-3.85 -0.315,-1.05 -1.33,-1.05 -0.98,0 -1.47,1.12 -0.455,1.085 -0.455,3.78 z"
             style="font-weight:400;font-size:35px;font-family:'Abril Fatface';letter-spacing:1;fill:#ECE2D0"
             id="path62" />
          <path
             d="m 191.085,-31.25 h 8.575 v 25.62 h 1.96 V -5 h -10.395 v -0.63 h 1.925 v -24.99 h -2.065 z"
             style="font-weight:400;font-size:35px;font-family:'Abril Fatface';letter-spacing:1;fill:#ECE2D0"
             id="path64" />
        </g>
      </g>
      <g
         id="zweig"
         transform="translate(0,5)">
        <g
           aria-label="Fullstack Developer"
           id="zwei"
           style="dominant-baseline:text-before-edge;text-anchor:middle;text-rendering:geometricPrecision">
          <path
             d="M -46.862891,20.017036 V 2.2670364 h 11.65 v 1.55 h -9.9 v 6.5249996 h 8.35 v 1.45 h -8.35 v 8.225 z"
             style="font-weight:400;font-size:25px;font-family:Raleway;letter-spacing:1;dominant-baseline:text-before-edge;fill:#ECE2D0"
             id="path67" />
          <path
             d="M -32.421875,14.642036 V 6.9920364 h 1.7 v 7.3499996 q 0,2.225 0.75,3.325 0.775,1.1 2.275,1.1 1,0 1.925,-0.425 0.95,-0.45 1.675,-1.25 0.725,-0.825 1.1,-1.9 V 6.9920364 h 1.7 V 17.967036 q 0,0.35 0.15,0.525 0.15,0.15 0.45,0.175 v 1.35 q -0.3,0.025 -0.475,0.025 -0.175,0.025 -0.325,0.025 -0.5,-0.05 -0.875,-0.4 -0.35,-0.35 -0.375,-0.85 l -0.05,-1.75 q -0.85,1.5 -2.325,2.35 -1.45,0.85 -3.15,0.85 -2.05,0 -3.1,-1.425 -1.05,-1.425 -1.05,-4.2 z"
             style="font-weight:400;font-size:25px;font-family:Raleway;letter-spacing:1;dominant-baseline:text-before-edge;fill:#ECE2D0"
             id="path69" />
          <path
             d="m -16.378125,1.7670364 h 1.7 V 17.067036 q 0,0.975 0.35,1.275 0.35,0.3 0.85,0.3 0.45,0 0.9,-0.1 0.45,-0.1 0.775,-0.2 l 0.3,1.375 q -0.475,0.2 -1.175,0.325 -0.675,0.125 -1.175,0.125 -1.15,0 -1.85,-0.675 -0.675,-0.675 -0.675,-1.85 z"
             style="font-weight:400;font-size:25px;font-family:Raleway;letter-spacing:1;dominant-baseline:text-before-edge;fill:#ECE2D0"
             id="path71" />
          <path
             d="m -8.5910156,1.7670364 h 1.7 V 17.067036 q 0,0.975 0.35,1.275 0.35,0.3 0.85,0.3 0.45,0 0.9,-0.1 0.45,-0.1 0.775,-0.2 l 0.3,1.375 q -0.475,0.2 -1.175,0.325 -0.675,0.125 -1.175,0.125 -1.15,0 -1.85,-0.675 -0.675,-0.675 -0.675,-1.85 z"
             style="font-weight:400;font-size:25px;font-family:Raleway;letter-spacing:1;dominant-baseline:text-before-edge;fill:#ECE2D0"
             id="path73" />
          <path
             d="m 3.3960938,20.267036 q -1.6000001,0 -2.97500005,-0.525 -1.375,-0.525 -2.37499995,-1.6 l 0.7,-1.2 q 1.09999995,1.025 2.19999995,1.5 1.12500005,0.45 2.37500005,0.45 1.5249999,0 2.475,-0.6 0.9499999,-0.625 0.9499999,-1.775 0,-0.775 -0.4749999,-1.175 -0.45,-0.425 -1.3250001,-0.675 -0.8499999,-0.275 -2.0499999,-0.575 -1.35,-0.375 -2.27500005,-0.775 -0.9,-0.425 -1.375,-1.05 -0.44999995,-0.65 -0.44999995,-1.675 0,-1.2749996 0.62499995,-2.0999996 0.65,-0.85 1.74999995,-1.275 1.1250001,-0.45 2.5,-0.45 1.5,0 2.65,0.475 1.1500001,0.475 1.875,1.325 l -0.825,1.15 q -0.6999999,-0.8 -1.6749999,-1.175 -0.9500001,-0.4 -2.125,-0.4 -0.8,0 -1.5250001,0.225 -0.7249999,0.2 -1.19999995,0.7 -0.45,0.475 -0.45,1.3249996 0,0.7 0.35,1.1 0.35000005,0.375 1.04999995,0.65 0.7000001,0.25 1.7250001,0.55 1.4749999,0.4 2.5749999,0.825 1.1000001,0.4 1.7,1.05 0.6000001,0.65 0.6000001,1.825 0,1.825 -1.375,2.85 -1.375,1.025 -3.625,1.025 z"
             style="font-weight:400;font-size:25px;font-family:Raleway;letter-spacing:1;dominant-baseline:text-before-edge;fill:#ECE2D0"
             id="path75" />
          <path
             d="m 18.431641,19.392036 q -0.2,0.075 -0.625,0.275 -0.425,0.2 -1.025,0.35 -0.6,0.15 -1.3,0.15 -0.725,0 -1.375,-0.275 -0.625,-0.275 -1,-0.825 -0.375,-0.575 -0.375,-1.4 V 8.3420364 h -1.8 v -1.35 h 1.8 v -4.4 h 1.7 v 4.4 h 3 v 1.35 h -3 v 8.8499996 q 0.05,0.7 0.5,1.05 0.475,0.35 1.075,0.35 0.7,0 1.275,-0.225 0.575,-0.25 0.7,-0.35 z"
             style="font-weight:400;font-size:25px;font-family:Raleway;letter-spacing:1;dominant-baseline:text-before-edge;fill:#ECE2D0"
             id="path77" />
          <path
             d="m 20.530078,16.267036 q 0,-1.225 0.7,-2.1 0.7,-0.9 1.925,-1.375 1.25,-0.5 2.875,-0.5 0.95,0 1.975,0.15 1.025,0.15 1.825,0.45 v -1.1 q 0,-1.65 -0.975,-2.6249996 -0.975,-0.975 -2.7,-0.975 -1.05,0 -2.075,0.4 -1,0.375 -2.1,1.125 l -0.65,-1.2 q 1.275,-0.875 2.5,-1.3 1.225,-0.45 2.5,-0.45 2.4,0 3.8,1.375 1.4,1.375 1.4,3.7999996 v 6.025 q 0,0.35 0.15,0.525 0.15,0.15 0.475,0.175 v 1.35 q -0.275,0.025 -0.475,0.05 -0.2,0.025 -0.3,0 -0.625,-0.025 -0.95,-0.4 -0.325,-0.375 -0.35,-0.8 l -0.025,-0.95 q -0.875,1.125 -2.275,1.75 -1.4,0.6 -2.85,0.6 -1.25,0 -2.275,-0.525 -1,-0.55 -1.575,-1.45 -0.55,-0.925 -0.55,-2.025 z m 8.725,1 q 0.275,-0.35 0.425,-0.675 0.15,-0.325 0.15,-0.575 v -1.9 q -0.85,-0.325 -1.775,-0.5 -0.9,-0.175 -1.825,-0.175 -1.825,0 -2.95,0.725 -1.125,0.725 -1.125,1.975 0,0.725 0.375,1.375 0.375,0.625 1.1,1.05 0.725,0.4 1.7,0.4 1.225,0 2.275,-0.475 1.075,-0.475 1.65,-1.225 z"
             style="font-weight:400;font-size:25px;font-family:Raleway;letter-spacing:1;dominant-baseline:text-before-edge;fill:#ECE2D0"
             id="path79" />
          <path
             d="m 41.853125,20.267036 q -1.425,0 -2.625,-0.525 -1.175,-0.55 -2.075,-1.5 -0.875,-0.95 -1.375,-2.175 -0.475,-1.225 -0.475,-2.6 0,-1.85 0.825,-3.375 0.825,-1.5249996 2.3,-2.4249996 1.475,-0.9 3.4,-0.9 1.825,0 3.225,0.85 1.4,0.825 2.075,2.25 l -1.65,0.5249996 q -0.55,-0.9999996 -1.55,-1.5499996 -0.975,-0.575 -2.175,-0.575 -1.3,0 -2.375,0.675 -1.075,0.675 -1.725,1.8499996 -0.625,1.175 -0.625,2.675 0,1.475 0.65,2.675 0.65,1.2 1.725,1.925 1.075,0.7 2.375,0.7 0.85,0 1.625,-0.3 0.8,-0.3 1.375,-0.8 0.6,-0.525 0.8,-1.125 l 1.675,0.5 q -0.35,0.925 -1.175,1.675 -0.8,0.725 -1.9,1.15 -1.075,0.4 -2.325,0.4 z"
             style="font-weight:400;font-size:25px;font-family:Raleway;letter-spacing:1;dominant-baseline:text-before-edge;fill:#ECE2D0"
             id="path81" />
          <path
             d="m 60.223828,20.017036 -4.825,-6.675 -2.775,2.6 v 4.075 h -1.7 V 1.7670364 h 1.7 V 14.117036 l 7.375,-7.0999996 h 1.875 l -5.325,5.3249996 5.525,7.675 z"
             style="font-weight:400;font-size:25px;font-family:Raleway;letter-spacing:1;dominant-baseline:text-before-edge;fill:#ECE2D0"
             id="path83" />
          <path
             d="M 72.902734,20.017036 V 2.2670364 h 6.025 q 2.825,0 4.7,1.2 1.9,1.175 2.85,3.2 0.95,2 0.95,4.4499996 0,2.7 -1.05,4.7 -1.025,2 -2.95,3.1 -1.9,1.1 -4.5,1.1 z m 12.775,-8.9 q 0,-2.1249996 -0.8,-3.7749996 -0.775,-1.65 -2.275,-2.575 -1.5,-0.95 -3.675,-0.95 h -4.275 V 18.467036 h 4.275 q 2.2,0 3.7,-0.975 1.5,-0.975 2.275,-2.625 0.775,-1.675 0.775,-3.75 z"
             style="font-weight:400;font-size:25px;font-family:Raleway;letter-spacing:1;dominant-baseline:text-before-edge;fill:#ECE2D0"
             id="path85" />
          <path
             d="m 97.048828,20.267036 q -1.4,0 -2.6,-0.525 -1.2,-0.55 -2.075,-1.475 -0.875,-0.95 -1.375,-2.175 -0.475,-1.225 -0.475,-2.625 0,-1.825 0.825,-3.35 0.85,-1.5249996 2.325,-2.4249996 1.475,-0.925 3.35,-0.925 1.925,0 3.350002,0.925 1.45,0.925 2.275,2.4499996 0.825,1.5 0.825,3.3 0,0.2 0,0.4 0,0.175 -0.025,0.275 H 92.298828 q 0.125,1.4 0.775,2.5 0.675,1.075 1.725,1.725 1.075,0.625 2.325,0.625 1.275,0 2.4,-0.65 1.150002,-0.65 1.600002,-1.7 l 1.475,0.4 q -0.4,0.925 -1.225,1.675 -0.825,0.75 -1.950002,1.175 -1.1,0.4 -2.375,0.4 z m -4.8,-7.375 h 9.625002 q -0.1,-1.425 -0.775,-2.5 -0.65,-1.0749996 -1.725002,-1.6749996 -1.05,-0.625 -2.325,-0.625 -1.275,0 -2.325,0.625 -1.05,0.6 -1.725,1.6999996 -0.65,1.075 -0.75,2.475 z"
             style="font-weight:400;font-size:25px;font-family:Raleway;letter-spacing:1;dominant-baseline:text-before-edge;fill:#ECE2D0"
             id="path87" />
          <path
             d="m 110.6543,20.017036 -5.275,-13.0249996 h 1.775 l 4.45,11.3249996 4.475,-11.3249996 h 1.675 l -5.275,13.0249996 z"
             style="font-weight:400;font-size:25px;font-family:Raleway;letter-spacing:1;dominant-baseline:text-before-edge;fill:#ECE2D0"
             id="path89" />
          <path
             d="m 126.29492,20.267036 q -1.4,0 -2.6,-0.525 -1.2,-0.55 -2.075,-1.475 -0.875,-0.95 -1.375,-2.175 -0.475,-1.225 -0.475,-2.625 0,-1.825 0.825,-3.35 0.85,-1.5249996 2.325,-2.4249996 1.475,-0.925 3.35,-0.925 1.925,0 3.35,0.925 1.45,0.925 2.275,2.4499996 0.825,1.5 0.825,3.3 0,0.2 0,0.4 0,0.175 -0.025,0.275 h -11.15 q 0.125,1.4 0.775,2.5 0.675,1.075 1.725,1.725 1.075,0.625 2.325,0.625 1.275,0 2.4,-0.65 1.15,-0.65 1.6,-1.7 l 1.475,0.4 q -0.4,0.925 -1.225,1.675 -0.825,0.75 -1.95,1.175 -1.1,0.4 -2.375,0.4 z m -4.8,-7.375 h 9.625 q -0.1,-1.425 -0.775,-2.5 -0.65,-1.0749996 -1.725,-1.6749996 -1.05,-0.625 -2.325,-0.625 -1.275,0 -2.325,0.625 -1.05,0.6 -1.725,1.6999996 -0.65,1.075 -0.75,2.475 z"
             style="font-weight:400;font-size:25px;font-family:Raleway;letter-spacing:1;dominant-baseline:text-before-edge;fill:#ECE2D0"
             id="path91" />
          <path
             d="m 136.44219,1.7670364 h 1.7 V 17.067036 q 0,0.975 0.35,1.275 0.35,0.3 0.85,0.3 0.45,0 0.9,-0.1 0.45,-0.1 0.775,-0.2 l 0.3,1.375 q -0.475,0.2 -1.175,0.325 -0.675,0.125 -1.175,0.125 -1.15,0 -1.85,-0.675 -0.675,-0.675 -0.675,-1.85 z"
             style="font-weight:400;font-size:25px;font-family:Raleway;letter-spacing:1;dominant-baseline:text-before-edge;fill:#ECE2D0"
             id="path93" />
          <path
             d="m 149.7043,20.267036 q -1.4,0 -2.6,-0.525 -1.175,-0.55 -2.05,-1.475 -0.85,-0.95 -1.325,-2.15 -0.475,-1.225 -0.475,-2.575 0,-1.4 0.475,-2.6 0.475,-1.2249996 1.35,-2.1499996 0.875,-0.95 2.05,-1.475 1.2,-0.55 2.6,-0.55 1.4,0 2.575,0.55 1.175,0.525 2.05,1.475 0.875,0.925 1.35,2.1499996 0.475,1.2 0.475,2.6 0,1.35 -0.475,2.575 -0.475,1.2 -1.35,2.15 -0.85,0.925 -2.05,1.475 -1.175,0.525 -2.6,0.525 z m -4.725,-6.7 q 0,1.45 0.625,2.65 0.65,1.175 1.725,1.875 1.075,0.675 2.375,0.675 1.3,0 2.375,-0.7 1.075,-0.7 1.725,-1.9 0.65,-1.225 0.65,-2.65 0,-1.45 -0.65,-2.65 -0.65,-1.1999996 -1.725,-1.8999996 -1.075,-0.7 -2.375,-0.7 -1.3,0 -2.375,0.725 -1.05,0.725 -1.7,1.9249996 -0.65,1.175 -0.65,2.65 z"
             style="font-weight:400;font-size:25px;font-family:Raleway;letter-spacing:1;dominant-baseline:text-before-edge;fill:#ECE2D0"
             id="path95" />
          <path
             d="m 166.69687,20.267036 q -1.625,0 -2.925,-0.85 -1.275,-0.85 -2.025,-2.1 v 8.025 h -1.7 V 6.9920364 h 1.525 v 2.525 q 0.775,-1.225 2.075,-1.975 1.3,-0.775 2.775,-0.775 1.35,0 2.475,0.575 1.125,0.55 1.95,1.5 0.825,0.95 1.275,2.1749996 0.475,1.2 0.475,2.5 0,1.825 -0.75,3.375 -0.725,1.525 -2.05,2.45 -1.325,0.925 -3.1,0.925 z m -0.475,-1.5 q 1.075,0 1.925,-0.425 0.85,-0.45 1.45,-1.2 0.625,-0.75 0.95,-1.675 0.325,-0.95 0.325,-1.95 0,-1.05 -0.375,-2 -0.35,-0.95 -1.025,-1.6749996 -0.675,-0.725 -1.55,-1.15 -0.875,-0.425 -1.9,-0.425 -0.65,0 -1.35,0.25 -0.7,0.25 -1.35,0.725 -0.625,0.45 -1.05,1.0249996 -0.425,0.575 -0.525,1.225 v 4 q 0.4,0.925 1.075,1.675 0.675,0.725 1.55,1.175 0.9,0.425 1.85,0.425 z"
             style="font-weight:400;font-size:25px;font-family:Raleway;letter-spacing:1;dominant-baseline:text-before-edge;fill:#ECE2D0"
             id="path97" />
          <path
             d="m 182.10156,20.267036 q -1.4,0 -2.6,-0.525 -1.2,-0.55 -2.075,-1.475 -0.875,-0.95 -1.375,-2.175 -0.475,-1.225 -0.475,-2.625 0,-1.825 0.825,-3.35 0.85,-1.5249996 2.325,-2.4249996 1.475,-0.925 3.35,-0.925 1.925,0 3.35,0.925 1.45,0.925 2.275,2.4499996 0.825,1.5 0.825,3.3 0,0.2 0,0.4 0,0.175 -0.025,0.275 h -11.15 q 0.125,1.4 0.775,2.5 0.675,1.075 1.725,1.725 1.075,0.625 2.325,0.625 1.275,0 2.4,-0.65 1.15,-0.65 1.6,-1.7 l 1.475,0.4 q -0.4,0.925 -1.225,1.675 -0.825,0.75 -1.95,1.175 -1.1,0.4 -2.375,0.4 z m -4.8,-7.375 h 9.625 q -0.1,-1.425 -0.775,-2.5 -0.65,-1.0749996 -1.725,-1.6749996 -1.05,-0.625 -2.325,-0.625 -1.275,0 -2.325,0.625 -1.05,0.6 -1.725,1.6999996 -0.65,1.075 -0.75,2.475 z"
             style="font-weight:400;font-size:25px;font-family:Raleway;letter-spacing:1;dominant-baseline:text-before-edge;fill:#ECE2D0"
             id="path99" />
          <path
             d="m 198.67383,8.4920364 q -1.7,0.05 -3,0.95 -1.275,0.8999996 -1.8,2.4749996 v 8.1 h -1.7 V 6.9920364 h 1.6 v 3.1249996 q 0.675,-1.3749996 1.775,-2.2249996 1.125,-0.85 2.375,-0.95 0.25,-0.025 0.425,-0.025 0.2,0 0.325,0.025 z"
             style="font-weight:400;font-size:25px;font-family:Raleway;letter-spacing:1;dominant-baseline:text-before-edge;fill:#ECE2D0"
             id="path101" />
        </g>
      </g>
    </g>
  </g>
</svg>
